<svg width="104" height="129" viewBox="0 0 104 129" fill="none" xmlns="http://www.w3.org/2000/svg">
<g clip-path="url(#clip0)">
<path d="M77.6938 67.5466C77.6938 67.5466 83.1822 82.3233 84.0794 85.5157C84.0794 85.5157 91.9886 66.0819 80.8866 60.1826L77.6938 67.5466Z" fill="#8F3E2D"/>
<path d="M77.2212 58.5803L82.2407 76.6424C82.2407 76.6424 88.6223 67.8784 87.0259 59.4826C85.4295 51.0868 77.985 49.3105 77.985 49.3105L77.2212 58.5803Z" fill="#A45319"/>
<path d="M74.0808 43.4924L79.1004 61.5545C79.1004 61.5545 85.4819 52.7905 83.8855 44.3947C82.2891 35.9989 74.8447 34.2227 74.8447 34.2227L74.0808 43.4924Z" fill="#A45319"/>
<path d="M69.522 26.7898C69.522 26.7898 75.0103 41.5664 75.9076 44.7589C75.9076 44.7589 83.8168 25.3251 72.7148 19.4258L69.522 26.7898Z" fill="#A45319"/>
<path d="M61.6128 13.5263C61.6128 13.5263 67.178 19.806 70.8557 29.9012C70.8557 29.9012 72.2905 25.3169 72.7189 22.7597C73.6646 17.1234 70.4475 9.49231 65.3714 8.99058C60.2913 8.48886 61.8634 13.057 61.6128 13.5263Z" fill="#A45319"/>
<path d="M47.8755 9.35491C47.8553 9.14451 44.4281 0.404785 42.856 0.404785C40.4432 0.404785 37.311 14.1456 37.311 14.1456" fill="white"/>
<path d="M37.3151 14.55C37.2868 14.55 37.2545 14.546 37.2262 14.5379C37.0079 14.4893 36.8705 14.2708 36.9231 14.0523C37.6707 10.7588 40.322 0 42.856 0C43.4339 0 44.3514 0.526002 46.3115 4.62477C47.2895 6.66809 48.2554 9.07961 48.2797 9.31024C48.3039 9.53278 48.1423 9.73104 47.92 9.75532C47.7139 9.77959 47.5239 9.63798 47.4835 9.43567C47.4108 9.19694 46.5742 7.0282 45.5315 4.85945C43.6037 0.853742 42.8883 0.809234 42.856 0.809234C41.5668 0.809234 39.1782 7.77674 37.7071 14.2344C37.6627 14.4206 37.497 14.55 37.3151 14.55Z" fill="#050506"/>
<path d="M64.9067 17.0952C64.9067 17.0952 76.6634 24.7748 86.9046 79.127C86.9046 79.127 86.5408 91.7106 78.3447 95.8134C70.1485 99.9163 52.5437 101.045 52.5437 101.045L37.3113 99.4307C37.3113 99.4307 50.0258 60.6684 44.392 52.4628" fill="white"/>
<path d="M52.5436 101.446C52.5275 101.446 52.5153 101.446 52.4992 101.442L37.2667 99.8272C37.1455 99.8151 37.0364 99.7463 36.9717 99.6451C36.9071 99.544 36.8909 99.4145 36.9273 99.3012C37.0525 98.9168 49.5165 60.636 44.0605 52.6893C43.9352 52.5032 43.9797 52.2523 44.1656 52.1269C44.3515 52.0015 44.6021 52.046 44.7274 52.2321C50.1349 60.106 39.3602 94.4013 37.8528 99.0787L52.5557 100.636C53.4287 100.576 70.306 99.3821 78.1668 95.4493C82.2648 93.3978 84.3139 89.0846 85.3081 85.8315C86.3306 82.4894 86.4842 79.5397 86.5003 79.1553C76.4047 25.6366 64.8015 17.5079 64.6843 17.431C64.4984 17.3096 64.4459 17.0588 64.5671 16.8726C64.6883 16.6865 64.9389 16.6339 65.1248 16.7553C65.6098 17.0749 77.1402 25.1511 87.3005 79.0501C87.3046 79.0784 87.3086 79.1068 87.3086 79.1351C87.3046 79.2646 87.2036 82.3761 86.0841 86.046C84.5927 90.9418 81.9779 94.4418 78.5264 96.1695C70.3545 100.26 53.2953 101.397 52.5719 101.442C52.5638 101.446 52.5557 101.446 52.5436 101.446Z" fill="#050506"/>
<path d="M58.0521 50.2981C43.8098 62.2505 32.3602 54.2593 32.3602 54.2593C26.2131 54.2593 24.6773 55.7968 24.6773 55.7968L14.4321 39.8994C24.1358 34.2955 28.7269 25.8997 30.7396 21.6472C31.4913 20.0651 31.8833 19.0576 32.045 18.9807C35.9248 13.3404 42.4155 9.64218 49.771 9.64218C49.771 9.64218 60.1698 9.06762 65.937 18.0339" fill="white"/>
<path d="M41.9346 57.2735C41.1789 57.2735 40.4716 57.229 39.8209 57.1602C35.5773 56.6989 32.817 55.0359 32.2391 54.6596C26.5163 54.6799 24.9724 56.0677 24.9603 56.0839C24.8714 56.1648 24.7502 56.2093 24.633 56.1931C24.5157 56.177 24.4066 56.1122 24.342 56.0111L14.0927 40.1177C14.0321 40.0246 14.0119 39.9114 14.0402 39.8021C14.0644 39.6929 14.1331 39.6038 14.2301 39.5472C21.1573 35.5455 26.589 29.4641 30.3759 21.473C30.6225 20.951 30.8326 20.4897 31.0064 20.1054C31.4267 19.1788 31.5843 18.8429 31.7581 18.6892C35.8602 12.7696 42.5894 9.23734 49.7751 9.23734C49.86 9.2333 60.4568 8.75585 66.2806 17.8152C66.4019 18.0013 66.3493 18.2522 66.1594 18.3736C65.9735 18.495 65.7229 18.4424 65.6017 18.2522C60.0365 9.6015 49.8964 10.0425 49.7953 10.0466C42.8278 10.0466 36.3291 13.4737 32.3805 19.2111C32.3563 19.2476 32.3239 19.2799 32.2916 19.3042C32.1986 19.4337 31.9764 19.9233 31.742 20.4412C31.5682 20.8296 31.358 21.2909 31.1074 21.8209C27.3165 29.8243 21.9009 35.9502 15.0021 40.0327L24.7865 55.218C25.5746 54.7406 27.6802 53.8504 32.3603 53.8504C32.4411 53.8504 32.522 53.8747 32.5907 53.9232C32.7038 54.0001 43.9675 61.5867 57.7935 49.9863C57.9673 49.8447 58.2178 49.8649 58.3633 50.0349C58.5048 50.2048 58.4846 50.4597 58.3148 50.6054C51.9737 55.9261 46.1782 57.2735 41.9346 57.2735ZM32.2148 19.3528C32.2108 19.3528 32.2108 19.3528 32.2148 19.3528C32.2108 19.3528 32.2108 19.3528 32.2148 19.3528Z" fill="#050506"/>
<path d="M7.00391 52.9766C7.00391 52.9766 7.00391 39.1306 10.0754 38.6208C12.367 38.2364 12.0962 38.9971 14.3635 40.0491C15.1354 40.4051 16.1983 40.7976 17.7583 41.1861C19.9448 41.7323 21.8079 41.8901 23.372 41.9589C26.197 42.0843 28.0399 41.9144 29.0261 43.2375C30.5618 45.2889 33.7587 54.15 29.1513 55.1737C24.54 56.2014 19.2941 57.5933 16.2226 57.5933C13.151 57.5892 7.00391 58.1031 7.00391 52.9766Z" fill="#A45319"/>
<path d="M7.64248 49.4116C7.64248 49.4116 7.08475 51.6249 7.09687 53.474C7.11304 56.015 10.7019 60.4415 15.3254 60.8218C25.413 61.6513 29.7576 59.3126 31.2934 53.1624C31.2934 53.1624 12.1043 52.4867 7.64248 49.4116Z" fill="#A45319"/>
<path d="M61.8916 9.73093C61.8916 9.73093 64.9632 2.55302 55.2353 0.501614C50.6967 -0.453282 36.3897 5.8466 35.8765 9.43556C35.8765 9.43556 56.771 16.399 61.8916 9.73093Z" fill="#A45319"/>
<path d="M46.5379 56.8932C53.3033 54.9835 57.7935 51.6777 60.4811 49.0639C61.2651 48.2992 62.5341 49.1489 62.1179 50.1645C60.1335 55.028 55.898 62.4122 47.4108 67.389C46.748 67.7774 45.9155 67.2959 45.9034 66.5272L45.7942 57.8805C45.7902 57.4192 46.0973 57.0187 46.5379 56.8932Z" fill="#DAD9D8"/>
<path d="M56.4437 7.52979C56.4437 7.52979 52.5598 16.4192 45.8994 16.9735C45.8994 16.9735 54.4512 18.7053 57.9431 13.6719C61.439 8.63844 56.4437 7.52979 56.4437 7.52979Z" fill="#A45319"/>
<path d="M54.7422 18.3252C54.7422 18.3252 56.1729 9.48427 61.0591 2.48035C61.633 1.65898 62.9181 1.96244 63.0798 2.94971C63.7062 6.74906 64.5913 14.0119 63.1324 18.4061" fill="white"/>
<path d="M63.1324 18.8106C63.092 18.8106 63.0475 18.8025 63.0031 18.7904C62.7929 18.7216 62.6757 18.4909 62.7484 18.2805C64.1751 13.9957 63.3183 6.87844 62.6838 3.01839C62.6272 2.66638 62.3605 2.4843 62.1301 2.4317C61.8391 2.36291 61.5643 2.47216 61.3945 2.71493C56.6215 9.557 55.1625 18.3048 55.1464 18.3898C55.11 18.6083 54.9079 18.762 54.6816 18.7256C54.4634 18.6892 54.3098 18.4829 54.3462 18.2603C54.3623 18.1713 55.8496 9.24545 60.7277 2.24962C61.0874 1.73576 61.6936 1.50108 62.3079 1.64269C62.9182 1.78026 63.3789 2.26985 63.48 2.88487C64.1306 6.81775 64.9955 14.0847 63.5163 18.5355C63.4598 18.7054 63.3021 18.8106 63.1324 18.8106Z" fill="#050506"/>
<path d="M54.5765 23.1199C54.5765 23.1199 52.7821 20.9066 49.9369 19.7292C47.0917 18.5558 44.788 20.5384 45.9398 21.4245C47.0917 22.3106 52.8912 25.6123 53.8046 25.3129C54.7139 25.0135 55.8132 24.362 54.5765 23.1199Z" fill="#A45319"/>
<path d="M32.6514 16.1442C32.6514 16.1442 34.6964 15.3147 36.895 15.602C39.0935 15.8893 39.5583 18.1389 38.4833 18.3008C37.4082 18.4626 32.5221 18.5031 32.1219 17.9447C31.7218 17.3904 31.3702 16.5205 32.6514 16.1442Z" fill="#A45319"/>
<path d="M90.9942 96.7116L73.2076 127.058C72.3386 128.543 70.427 129.04 68.9438 128.171L19.6011 99.1797C18.1178 98.3098 17.6207 96.396 18.4897 94.911L36.2763 64.5648C37.1452 63.0798 39.0569 62.5821 40.5401 63.4521L89.8828 92.4429C91.3701 93.3168 91.8672 95.2266 90.9942 96.7116Z" fill="#050606"/>
<path d="M70.516 129C69.9098 129 69.2995 128.846 68.7418 128.515L19.395 99.5278C17.7219 98.5446 17.1601 96.3799 18.1422 94.7047L35.9288 64.3585C36.9109 62.6834 39.0731 62.1209 40.7463 63.1042L90.089 92.095C91.7622 93.0782 92.324 95.2429 91.3419 96.918L73.5552 127.264C72.9005 128.377 71.7244 129 70.516 129ZM38.968 63.4278C38.0385 63.4278 37.1292 63.9093 36.624 64.7671L18.8373 95.1134C18.0816 96.4041 18.514 98.0712 19.8032 98.8278L69.15 127.819C70.4392 128.575 72.1043 128.142 72.8601 126.852L90.6468 96.5053C91.4025 95.2146 90.9701 93.5475 89.6808 92.7909L40.3381 63.8041C39.9057 63.5492 39.4369 63.4278 38.968 63.4278Z" fill="white"/>
<path d="M42.3144 72.8919L41.793 73.5717L42.3144 73.8792L42.1527 74.1543L41.595 73.8266L41.1141 74.4578L40.8473 74.3L41.3283 73.6688L40.617 73.248L40.136 73.8792L39.8693 73.7214L40.3502 73.0902L39.8289 72.7827L39.9905 72.5075L40.5442 72.8353L41.0696 72.1596L40.5402 71.848L40.7018 71.5729L41.2636 71.9046L41.7445 71.2734L42.0113 71.4312L41.5303 72.0624L42.2376 72.4792L42.7185 71.848L42.9853 72.0058L42.5043 72.637L43.0257 72.9445L42.864 73.2197L42.3144 72.8919ZM42.0476 72.7382L41.3404 72.3214L40.815 72.9971L41.5263 73.4179L42.0476 72.7382Z" fill="white"/>
<path d="M43.6035 74.7857L43.1873 74.5429L42.6901 75.3885L42.3264 75.1741L43.4985 73.1753L43.8622 73.3897L43.3651 74.2354L43.7854 74.4822L44.9291 74.0169L45.3171 74.2475L43.9956 74.7654L44.1976 76.2787L43.7733 76.0278L43.6035 74.7857Z" fill="white"/>
<path d="M46.9581 75.4532C47.0268 75.6757 46.9783 75.9225 46.8206 76.1896L46.1134 77.3953L45.7699 77.193L45.9234 76.93C45.8062 76.9867 45.6809 77.0069 45.5395 76.9907C45.398 76.9745 45.2525 76.9219 45.099 76.8289C44.8767 76.6994 44.7272 76.5376 44.6584 76.3514C44.5857 76.1653 44.6059 75.9832 44.7069 75.8052C44.812 75.6272 44.9575 75.526 45.1475 75.4936C45.3374 75.4613 45.5718 75.5301 45.8507 75.6919L46.4246 76.0277L46.465 75.9549C46.5579 75.7971 46.5822 75.6514 46.5377 75.5179C46.4933 75.3844 46.3882 75.263 46.2104 75.1578C46.0932 75.089 45.9638 75.0405 45.8305 75.0121C45.6971 74.9838 45.5678 74.9798 45.4506 75L45.4587 74.6399C45.6122 74.6156 45.7699 74.6278 45.9396 74.6682C46.1093 74.7087 46.275 74.7775 46.4327 74.8705C46.7196 75.0405 46.8934 75.2306 46.9581 75.4532ZM45.7375 76.7075C45.8749 76.7034 46.0002 76.6589 46.1093 76.574L46.275 76.2948L45.7173 75.967C45.4102 75.785 45.196 75.8012 45.0747 76.0075C45.0141 76.1087 45.006 76.2098 45.0505 76.315C45.0949 76.4202 45.1838 76.5092 45.3253 76.5942C45.4627 76.6711 45.6001 76.7115 45.7375 76.7075Z" fill="white"/>
<path d="M49.4557 76.8208C49.5567 76.9948 49.6093 77.1849 49.6052 77.3913C49.6012 77.5976 49.5406 77.7999 49.4234 77.9982C49.3062 78.2005 49.1566 78.3502 48.9788 78.4554C48.801 78.5606 48.611 78.6092 48.409 78.6051C48.2069 78.6011 48.0048 78.5404 47.8149 78.4271C47.6734 78.3421 47.5562 78.2369 47.4713 78.1115C47.3824 77.9861 47.3299 77.8444 47.3097 77.6907L46.7034 78.7225L46.3438 78.508L47.9482 75.7769L48.2958 75.9792L48.1099 76.2948C48.2554 76.23 48.4049 76.2058 48.5625 76.2219C48.7202 76.2381 48.8697 76.2907 49.0192 76.3757C49.2011 76.5011 49.3506 76.6427 49.4557 76.8208ZM48.3645 78.2086C48.5019 78.2086 48.6312 78.1722 48.7525 78.1034C48.8737 78.0306 48.9748 77.9254 49.0556 77.7878C49.1364 77.6502 49.1809 77.5086 49.1809 77.367C49.1849 77.2254 49.1526 77.0959 49.0839 76.9786C49.0152 76.8612 48.9182 76.7641 48.7889 76.6872C48.6636 76.6144 48.5342 76.578 48.3968 76.574C48.2594 76.574 48.1301 76.6063 48.0088 76.6791C47.8876 76.752 47.7866 76.8531 47.7057 76.9947C47.6249 77.1323 47.5805 77.2739 47.5764 77.4156C47.5724 77.5572 47.6047 77.6866 47.6734 77.808C47.7421 77.9294 47.8391 78.0265 47.9644 78.0994C48.0978 78.1681 48.2271 78.2046 48.3645 78.2086Z" fill="white"/>
<path d="M51.7594 78.4552L51.0278 78.0263L50.0417 79.7095L49.678 79.4951L50.6641 77.8119L49.9326 77.383L50.1185 77.0674L51.9412 78.1396L51.7594 78.4552Z" fill="white"/>
<path d="M53.5537 79.3336C53.6224 79.5561 53.5739 79.8029 53.4163 80.0699L52.7091 81.2757L52.3655 81.0734L52.5191 80.8104C52.4019 80.867 52.2766 80.8873 52.1352 80.8711C51.9937 80.8549 51.8482 80.8023 51.6946 80.7092C51.4724 80.5757 51.3228 80.4179 51.2541 80.2318C51.1854 80.0457 51.2016 79.8636 51.3026 79.6856C51.4077 79.5116 51.5532 79.4064 51.7431 79.374C51.9331 79.3416 52.1675 79.4104 52.4464 79.5723L53.0202 79.9081L53.0607 79.8353C53.1536 79.6815 53.1779 79.5318 53.1334 79.3983C53.093 79.2607 52.9839 79.1434 52.806 79.0382C52.6888 78.9694 52.5595 78.9208 52.4261 78.8925C52.2887 78.8642 52.1634 78.8601 52.0462 78.8804L52.0543 78.5203C52.2079 78.496 52.3655 78.5081 52.5353 78.5486C52.705 78.5891 52.8707 78.6578 53.0283 78.7509C53.3153 78.9168 53.485 79.111 53.5537 79.3336ZM52.3332 80.5879C52.4706 80.5838 52.5959 80.5393 52.705 80.4543L52.8707 80.1751L52.313 79.8474C52.0058 79.6653 51.7916 79.6815 51.6704 79.8879C51.6098 79.989 51.6017 80.0902 51.6461 80.1954C51.6906 80.3006 51.7795 80.3936 51.921 80.4746C52.0584 80.5514 52.1958 80.5919 52.3332 80.5879Z" fill="white"/>
<path d="M54.6328 81.2715L54.2165 81.0287L53.7194 81.8744L53.3557 81.6599L54.5277 79.6611L54.8915 79.8756L54.3944 80.7212L54.8147 80.968L55.9584 80.5027L56.3464 80.7293L55.0248 81.2472L55.2269 82.7605L54.8026 82.5096L54.6328 81.2715Z" fill="white"/>
<path d="M57.9873 81.9434C58.056 82.166 58.0075 82.4128 57.8499 82.6798L57.1427 83.8856L56.7991 83.6833L56.9527 83.4203C56.8395 83.4769 56.7102 83.4971 56.5688 83.481C56.4273 83.4648 56.2818 83.4122 56.1282 83.3191C55.906 83.1856 55.7564 83.0278 55.6877 82.8417C55.619 82.6555 55.6352 82.4735 55.7362 82.2954C55.8372 82.1174 55.9868 82.0162 56.1767 81.9839C56.3667 81.9515 56.6011 82.0203 56.88 82.1821L57.4539 82.518L57.4943 82.4451C57.5872 82.2914 57.6115 82.1417 57.567 82.0081C57.5266 81.8706 57.4175 81.7532 57.2397 81.648C57.1225 81.5793 56.9931 81.5307 56.8598 81.5024C56.7223 81.4741 56.5971 81.47 56.4798 81.4902L56.4879 81.1301C56.6415 81.1059 56.7991 81.118 56.9689 81.1585C57.1386 81.1989 57.3043 81.2677 57.4619 81.3608C57.7489 81.5267 57.9227 81.7209 57.9873 81.9434ZM56.7668 83.1977C56.9042 83.1937 57.0295 83.1492 57.1386 83.0642L57.3043 82.785L56.7466 82.4573C56.4394 82.2752 56.2252 82.2914 56.104 82.4977C56.0434 82.5989 56.0353 82.7 56.0797 82.8052C56.1242 82.9104 56.2131 82.9995 56.3505 83.0844C56.496 83.1613 56.6334 83.1977 56.7668 83.1977Z" fill="white"/>
<path d="M60.4849 83.311C60.5859 83.485 60.6385 83.6752 60.6344 83.8815C60.6304 84.0838 60.5698 84.2902 60.4526 84.4884C60.3354 84.6907 60.1858 84.8405 60.008 84.9457C59.8302 85.0509 59.6402 85.0994 59.4382 85.0954C59.2361 85.0913 59.034 85.0306 58.8441 84.9173C58.7026 84.8324 58.5854 84.7272 58.5005 84.6017C58.4116 84.4763 58.3591 84.3347 58.3389 84.1809L57.7326 85.2127L57.3689 84.9983L58.9734 82.2671L59.3209 82.4694L59.135 82.785C59.2805 82.7203 59.4301 82.696 59.5877 82.7122C59.7453 82.7283 59.8948 82.781 60.0444 82.8659C60.2343 82.9914 60.3798 83.133 60.4849 83.311ZM59.3937 84.6948C59.5311 84.6948 59.6604 84.6584 59.7817 84.5855C59.9029 84.5127 60.004 84.4075 60.0848 84.2699C60.1656 84.1324 60.2101 83.9908 60.2101 83.8491C60.2141 83.7075 60.1818 83.578 60.1131 83.4607C60.0444 83.3434 59.9474 83.2463 59.8181 83.1694C59.6928 83.0966 59.5634 83.0601 59.426 83.0561C59.2886 83.0561 59.1593 83.0885 59.038 83.1613C58.9168 83.2341 58.8158 83.3353 58.7349 83.4769C58.6541 83.6145 58.6096 83.7561 58.6056 83.8977C58.6016 84.0393 58.6339 84.1688 58.6986 84.2902C58.7673 84.4075 58.8643 84.5046 58.9895 84.5815C59.127 84.6584 59.2563 84.6948 59.3937 84.6948Z" fill="white"/>
<path d="M62.7888 84.9455L62.0572 84.5166L61.0711 86.1998L60.7114 85.9853L61.6976 84.3021L60.966 83.8732L61.1519 83.5576L62.9747 84.6299L62.7888 84.9455Z" fill="white"/>
<path d="M64.583 85.8233C64.6517 86.0458 64.6033 86.2926 64.4456 86.5597L63.7384 87.7654L63.3948 87.5631L63.5484 87.3001C63.4312 87.3568 63.3059 87.377 63.1645 87.3608C63.023 87.3446 62.8775 87.292 62.7239 87.199C62.5017 87.0695 62.3521 86.9077 62.2834 86.7215C62.2147 86.5354 62.2309 86.3533 62.3319 86.1753C62.437 86.0013 62.5825 85.8961 62.7724 85.8638C62.9624 85.8314 63.1968 85.9002 63.4757 86.062L64.0496 86.3978L64.09 86.325C64.1829 86.1672 64.2072 86.0216 64.1627 85.888C64.1223 85.7505 64.0132 85.6331 63.8354 85.5279C63.7182 85.4591 63.5888 85.4106 63.4555 85.3823C63.318 85.3539 63.1928 85.3499 63.0756 85.3701L63.0836 85.01C63.2372 84.9857 63.3948 84.9979 63.5646 85.0383C63.7343 85.0788 63.9 85.1476 64.0576 85.2406C64.3446 85.4065 64.5143 85.6008 64.583 85.8233ZM63.3625 87.0776C63.4999 87.0736 63.6252 87.029 63.7343 86.9441L63.9 86.6649L63.3423 86.3372C63.0351 86.1551 62.8209 86.1713 62.6997 86.3776C62.6391 86.4788 62.631 86.5799 62.6754 86.6851C62.7199 86.7903 62.8088 86.8793 62.9503 86.9643C63.0877 87.0412 63.2251 87.0776 63.3625 87.0776Z" fill="white"/>
<path d="M25.8939 78.3257C22.3212 76.6708 11.7809 83.1244 2.10153 90.3388C0.440471 91.5769 -0.0606755 93.8306 0.885036 95.6716C0.897161 95.6959 0.909285 95.7202 0.925451 95.7485C2.0894 98.0184 5.01545 98.682 7.07662 97.1808C11.4657 93.9884 16.0649 90.796 17.7543 90.3388C18.0614 90.2578 18.3282 90.1688 18.5585 90.0717C19.8316 89.5578 21.2865 89.7318 22.4101 90.5208C23.3396 91.1723 24.5238 91.8035 25.9909 92.2526C30.4769 93.6283 38.8469 88.2712 39.7764 85.9568C40.7019 83.6383 32.9422 81.595 25.8939 78.3257Z" fill="white"/>
<path d="M4.60323 98.3909C4.24758 98.3909 3.88788 98.3504 3.53627 98.2655C2.24703 97.958 1.16391 97.1083 0.561727 95.9349L0.54152 95.8944C0.54152 95.8944 0.525354 95.858 0.521312 95.858C-0.521396 93.8268 0.0403733 91.3708 1.85905 90.0194C9.04888 84.6582 21.7594 75.967 26.0636 77.9618C28.0682 78.8924 30.1819 79.7421 32.045 80.4906C37.2222 82.5744 40.9646 84.0796 40.1482 86.1108C39.0772 88.7813 30.485 94.0575 25.8696 92.6453C24.5319 92.2367 23.2871 91.6338 22.1757 90.8569C21.1491 90.1408 19.8518 89.987 18.704 90.4523C18.4535 90.5535 18.1665 90.6506 17.8513 90.7315C15.8952 91.2575 9.43283 95.9632 7.307 97.5088C6.51082 98.0874 5.56511 98.3909 4.60323 98.3909ZM24.5198 78.4676C20.8501 78.4676 12.7994 82.8698 2.33999 90.6627C0.840591 91.7795 0.379859 93.8066 1.2407 95.4858L1.28111 95.5626C1.77418 96.5256 2.66331 97.2216 3.72218 97.4765C4.80126 97.7354 5.93693 97.5088 6.83414 96.8534C12.7751 92.528 16.2104 90.335 17.6452 89.9465C17.924 89.8697 18.1827 89.7887 18.405 89.6957C19.8074 89.1292 21.3916 89.3113 22.6405 90.1853C23.6832 90.9136 24.8512 91.476 26.1081 91.8604C30.4082 93.1754 38.564 87.883 39.4006 85.7992C39.9138 84.5206 35.9451 82.9224 31.746 81.2311C29.8747 80.4785 27.753 79.6248 25.7282 78.6861C25.3968 78.5404 24.9967 78.4676 24.5198 78.4676Z" fill="#050506"/>
<path d="M22.6284 90.0721C22.9639 89.4935 29.9961 82.3318 29.6849 79.5439C29.6849 79.5439 40.9081 83.3069 39.8978 85.9612C39.146 87.9397 32.3199 93.3576 29.212 92.7183C26.1041 92.083 22.6284 90.0721 22.6284 90.0721Z" fill="#A45319"/>
<path d="M79.0558 82.4203C82.7214 80.9799 92.8575 88.0486 102.096 95.8253C103.681 97.1606 104.048 99.4386 102.998 101.219C102.981 101.243 102.969 101.267 102.953 101.292C101.66 103.489 98.6975 103.978 96.7293 102.356C92.5382 98.9085 88.137 95.449 86.476 94.8947C86.1728 94.7935 85.9142 94.6883 85.6879 94.5831C84.4471 93.9924 82.9841 94.0814 81.8161 94.8016C80.8502 95.3964 79.6296 95.9588 78.1383 96.3189C73.5795 97.4276 65.541 91.5849 64.7488 89.2139C63.9607 86.8428 71.8255 85.2648 79.0558 82.4203Z" fill="white"/>
<path d="M99.3966 103.716C98.3377 103.716 97.3071 103.351 96.4746 102.668C94.4457 100.997 88.2703 95.9186 86.3506 95.2753C86.0434 95.1741 85.7605 95.0608 85.518 94.9435C84.3986 94.4135 83.0972 94.4863 82.0302 95.1418C80.8744 95.8499 79.6013 96.3759 78.2393 96.7076C73.5471 97.8487 65.2863 92.0707 64.3729 89.3396C63.9324 88.0165 65.4439 87.098 66.62 86.5194C68.1477 85.7708 70.3018 85.0466 72.7954 84.2131C74.6989 83.5738 76.8571 82.8536 78.9142 82.0443C83.3316 80.3045 95.5006 89.7361 102.363 95.514C104.097 96.9747 104.513 99.459 103.353 101.425L103.325 101.47C102.638 102.635 101.506 103.42 100.201 103.651C99.93 103.695 99.6633 103.716 99.3966 103.716ZM83.958 93.7863C84.6087 93.7863 85.2553 93.9279 85.8616 94.2152C86.0758 94.3164 86.3263 94.4175 86.6052 94.5106C88.0116 94.9799 91.3095 97.3753 96.9878 102.045C97.8487 102.753 98.9682 103.044 100.059 102.854C101.13 102.664 102.06 102.02 102.61 101.086C102.61 101.086 102.63 101.053 102.63 101.049L102.65 101.013C103.612 99.3862 103.268 97.3348 101.838 96.1331C90.5618 86.6448 82.103 81.6559 79.2052 82.7969L79.0557 82.4206L79.2052 82.7969C77.1279 83.6142 74.9616 84.3385 73.046 84.9818C70.5807 85.8073 68.4467 86.5234 66.9716 87.2477C64.866 88.2835 65.068 88.8864 65.1367 89.0847C65.8481 91.2129 73.6724 96.9828 78.0453 95.9227C79.3265 95.6111 80.5227 95.1175 81.6059 94.4539C82.3293 94.0088 83.1416 93.7863 83.958 93.7863Z" fill="#050506"/>
<path d="M81.622 94.3408C81.3229 93.742 74.7231 86.1756 75.2 83.4121C75.2 83.4121 63.7747 86.5034 64.6234 89.2143C65.2579 91.2334 71.7486 97.0437 74.8929 96.5945C78.0331 96.1414 81.622 94.3408 81.622 94.3408Z" fill="#A45319"/>
<path d="M48.7244 31.2647C48.6031 31.2647 48.4819 31.2121 48.4051 31.1069C45.8185 27.7203 43.1188 28.5983 43.0016 28.6388C42.7915 28.7116 42.5611 28.5983 42.4883 28.3879C42.4156 28.1775 42.5247 27.9469 42.7349 27.874C42.8682 27.8255 46.0853 26.7411 49.0477 30.6133C49.1851 30.7913 49.1487 31.0462 48.9709 31.1798C48.8982 31.2364 48.8093 31.2647 48.7244 31.2647Z" fill="#050506"/>
<path d="M30.186 22.3511C30.186 22.3511 32.8049 22.6464 33.3263 23.7551Z" fill="white"/>
<path d="M33.3262 24.1599C33.1726 24.1599 33.0311 24.0749 32.9584 23.9293C32.6472 23.2698 31.0629 22.8611 30.1374 22.7559C29.9151 22.7316 29.7575 22.5293 29.7818 22.3068C29.806 22.0842 30.004 21.9264 30.2304 21.9507C30.5214 21.9831 33.0877 22.3108 33.6899 23.5854C33.7869 23.7877 33.698 24.0304 33.4959 24.1235C33.4393 24.1478 33.3827 24.1599 33.3262 24.1599Z" fill="#050506"/>
<path d="M8.15179 51.4471C8.15179 51.4471 6.54732 46.2234 7.85676 46.2639C9.16621 46.3003 11.777 49.1974 16.8572 49.9823C21.9374 50.7673 28.6705 47.9026 28.8322 49.4766C28.9938 51.0505 25.1019 55.8897 21.4524 56.44C17.8029 56.9903 11.777 57.1279 8.15179 51.4471Z" fill="#6D1C28"/>
<path d="M18.3242 57.0873C13.6401 57.0873 10.1119 55.2705 7.81228 51.6613C7.79207 51.629 7.77591 51.5966 7.76782 51.5642C7.45259 50.5406 6.48263 47.1296 7.2101 46.1707C7.37176 45.9603 7.60212 45.851 7.86886 45.8551C8.45488 45.8713 9.13385 46.284 10.0755 46.8545C11.6355 47.7973 13.7695 49.092 16.9137 49.5776C19.4235 49.966 22.3577 49.4359 24.7138 49.0111C27.0498 48.5903 28.2987 48.392 28.8968 48.8452C29.0868 48.9868 29.1999 49.1891 29.2242 49.4319C29.406 51.2122 25.3928 56.2497 21.5049 56.8364C20.3975 57.0063 19.3346 57.0873 18.3242 57.0873ZM8.52358 51.2729C11.1384 55.3312 15.4669 56.9335 21.3917 56.0353C24.8553 55.5093 28.5573 50.7833 28.428 49.5128C28.2017 49.2053 26.2698 49.5533 24.8634 49.8082C22.4466 50.2452 19.4397 50.7874 16.7965 50.3787C13.4906 49.8689 11.1869 48.473 9.66329 47.5504C8.89136 47.0811 8.22047 46.6765 7.84865 46.6684C7.55362 46.9354 7.86886 49.1284 8.52358 51.2729Z" fill="#090506"/>
<path d="M9.35216 47.2349C9.35216 47.2349 11.8256 48.9383 13.4098 49.4157C15.4872 50.0389 18.4698 51.4105 24.7745 49.5533L25.308 49.6019C25.308 49.6019 24.92 51.1718 23.8571 51.7302C22.7902 52.2926 20.7896 54.081 16.057 53.2879C11.3244 52.4908 9.70377 49.7759 9.45724 49.1892C9.2107 48.6025 9.35216 47.2349 9.35216 47.2349Z" fill="white"/>
<path d="M9.11772 52.2563C9.11772 52.2563 12.1691 56.5614 18.0656 56.3712C23.9581 56.181 25.308 54.0649 25.308 54.0649C25.308 54.0649 25.0008 53.3528 23.5742 53.284C22.0061 53.2071 20.0621 54.2187 17.3098 53.9435C9.74415 53.1869 11.482 51.4713 9.54612 51.5563C8.80652 51.5886 9.11772 52.2563 9.11772 52.2563Z" fill="white"/>
</g>
<defs>
<clipPath id="clip0">
<rect width="104" height="129" fill="white"/>
</clipPath>
</defs>
</svg>
