<svg width="104" height="104" viewBox="0 0 104 104" fill="none" xmlns="http://www.w3.org/2000/svg">
<path d="M35.9396 28.8437C35.4993 28.8123 35.0589 28.7606 34.6185 28.7516C33.8579 28.7358 33.0963 28.7471 32.2773 28.7471C32.2773 29.9182 32.2773 31.032 32.2773 32.184C31.0707 32.184 29.9214 32.184 28.7149 32.184C28.7149 31.0342 28.7149 29.9024 28.7149 28.7325C26.2939 28.7325 23.9302 28.7325 21.5003 28.7325C21.5003 29.8744 21.5003 31.005 21.5003 32.2267C20.36 32.2267 19.2849 32.2379 18.2097 32.2064C18.1199 32.2042 17.9671 31.9232 17.9626 31.7681C17.9379 30.9083 17.9334 30.0474 17.957 29.1877C17.9682 28.792 17.8289 28.6673 17.4413 28.6752C16.419 28.6954 15.3967 28.6819 14.3306 28.6819C14.3306 31.0792 14.3306 33.4101 14.3306 35.8557C13.1004 35.8557 11.9129 35.8557 10.7255 35.8557L10.7378 35.8456C10.739 38.2429 10.7401 40.6391 10.7412 43.0363C14.3294 43.0363 17.9188 43.0363 21.5373 43.0363C21.5373 41.7753 21.5373 40.6008 21.5373 39.4264C20.3678 39.4264 19.1984 39.4264 18.0188 39.4264C18.0188 38.235 18.0188 37.0988 18.0188 35.9344C19.1759 35.9344 20.3027 35.9344 21.5182 35.9344C21.5182 37.1359 21.5182 38.2901 21.5182 39.4455C22.6709 39.4455 23.8224 39.4455 24.9964 39.4455C24.9964 41.8596 24.9964 44.1906 24.9964 46.598C22.6282 46.598 20.2869 46.598 17.8862 46.598C17.8862 47.8219 17.8862 48.9716 17.8862 50.1517C16.6785 50.1517 15.5304 50.1517 14.3103 50.1517C14.3103 48.9469 14.3103 47.7814 14.3103 46.5519C13.0903 46.5519 11.941 46.5519 10.7592 46.5519C10.7592 45.3302 10.7592 44.1748 10.7592 43.0195C8.37303 43.0195 5.98687 43.0195 3.54005 43.0195C3.54005 41.7877 3.54005 40.6132 3.54005 39.4376L3.55465 39.4522C2.38292 39.4522 1.21119 39.4522 0.00912476 39.4522C0.00912476 46.6396 0.00912476 53.7595 0.00912476 60.9502C2.35371 60.9502 4.6983 60.9502 7.09681 60.9502C7.11478 61.1761 7.13838 61.3357 7.13838 61.4941C7.13838 65.8897 7.12714 70.2853 7.14399 74.6808C7.14624 75.2079 7.0193 75.3844 6.46432 75.3743C4.5208 75.3394 2.57615 75.3608 0.631496 75.3608C0.431526 75.3608 0.232681 75.3608 0.00350189 75.3608C0.00350189 76.5645 0.00350189 77.6996 0.00350189 78.9168C1.14827 78.9168 2.29417 78.9168 3.47152 78.9168C3.47152 80.1317 3.47152 81.2635 3.47152 82.4616C2.31776 82.4616 1.1876 82.4616 0.0192337 82.4616C0.0192337 84.8881 0.0192337 87.2494 0.0192337 89.6737C1.01234 89.6737 1.98073 89.695 2.94687 89.6647C3.41422 89.65 3.55802 89.7995 3.54342 90.2682C3.51421 91.2583 3.54454 92.2496 3.55128 93.2409L3.54005 93.2308C5.8925 93.2308 8.24495 93.2308 10.6716 93.2308C10.6716 95.6472 10.6716 98.0287 10.6716 100.486C13.1071 100.486 15.4697 100.486 17.8907 100.486C17.8907 101.69 17.8907 102.822 17.8907 103.989C29.8731 103.989 41.7983 103.989 53.792 103.989C53.792 102.841 53.792 101.709 53.792 100.499C57.4016 100.499 60.9426 100.499 64.5005 100.499C64.5005 96.8711 64.5005 93.323 64.5005 89.7085C63.3872 89.7085 62.3076 89.6939 61.2291 89.7332C61.1336 89.7366 60.9752 90.0906 60.9741 90.2839C60.9572 92.2305 60.9673 94.176 60.9696 96.1226C60.9696 96.3249 60.9696 96.5283 60.9696 96.7744C57.378 96.7744 53.8381 96.7744 50.2543 96.7744C50.2543 95.6348 50.2543 94.5042 50.2543 93.3016C51.4115 93.3016 52.5596 93.3016 53.7875 93.3016C53.7875 90.8875 53.7875 88.543 53.7875 86.1379C54.9986 86.1379 56.131 86.1379 57.3162 86.1379C57.3162 83.7147 57.3162 81.3534 57.3162 78.9325C56.1849 78.9325 55.0525 78.9325 53.8527 78.9325C53.8527 77.7097 53.8527 76.5443 53.8527 75.3158C52.6158 75.3158 51.4463 75.3158 50.2465 75.3158C50.2465 74.1178 50.2465 72.986 50.2465 71.8025C51.4025 71.8025 52.536 71.8025 53.7235 71.8025C53.7235 70.5898 53.7235 69.4255 53.7235 68.2195C48.995 68.2195 44.2575 68.2195 39.4605 68.2195C39.4605 69.4187 39.4605 70.609 39.4605 71.7992C41.8253 71.7992 44.1901 71.7992 46.5661 71.7992C46.5661 72.9849 46.5661 74.1166 46.5661 75.2507C44.1856 75.2507 41.8444 75.2507 39.4773 75.2507C39.4773 74.0593 39.4773 72.9208 39.4773 71.7823C38.3067 71.7823 37.1361 71.7823 35.9014 71.7823C35.9014 70.5584 35.9014 69.3918 35.9014 68.1802C34.6544 68.1802 33.4704 68.1802 32.2863 68.1802C32.2863 69.3311 32.2863 70.4808 32.2863 71.6362C31.0348 71.6362 29.8889 71.6362 28.6924 71.6362C28.6924 70.4617 28.6924 69.3255 28.6924 68.1903C27.5038 68.1903 26.3153 68.1903 25.0727 68.1903C25.0727 66.9529 25.0727 65.7998 25.0727 64.6276C22.6574 64.6276 20.2971 64.6276 17.8974 64.6276C17.8974 65.8492 17.8974 67.0248 17.8974 68.2016C19.068 68.2016 20.2386 68.2016 21.4239 68.2016C21.4239 69.385 21.4239 70.5134 21.4239 71.6339C20.2465 71.6339 19.1175 71.6339 17.9176 71.6339C17.9176 70.4561 17.9176 69.3187 17.9176 68.1824C15.536 68.1824 13.1532 68.1824 10.7828 68.1824C10.7828 65.7447 10.7828 63.3958 10.7828 60.9771C14.3631 60.9771 17.9042 60.9771 21.5126 60.9771C21.5126 59.7588 21.5126 58.6102 21.5126 57.4245C22.7259 57.4245 23.8718 57.4245 25.0873 57.4245C25.0873 58.4821 25.0975 59.5048 25.0817 60.5276C25.0761 60.8636 25.1828 60.9974 25.5289 60.9884C26.2198 60.9704 26.9118 60.9839 27.6038 60.9839C27.9476 60.9839 28.2914 60.9839 28.6733 60.9839C28.6733 63.4654 28.6733 65.838 28.6733 68.2105C29.8855 68.2072 31.0966 68.2038 32.3076 68.2016C32.3076 65.8279 32.3076 63.4531 32.3076 60.9828C32.9873 60.9828 33.6512 60.9816 34.314 60.9828C35.8475 60.9861 35.8475 60.9861 35.8475 59.4801C35.8475 53.1919 35.8475 46.9037 35.8475 40.6155C35.8475 39.4264 35.8475 39.4264 34.6836 39.4264C33.9029 39.4264 33.1232 39.4264 32.3144 39.4264C32.3144 38.2238 32.3144 37.0887 32.3144 35.8895C35.861 35.8895 39.4065 35.8895 42.9925 35.8895C42.9925 34.6599 42.9925 33.4944 42.9925 32.2739C40.6401 32.2739 38.3089 32.2739 35.9374 32.2739C35.9374 31.0938 35.9374 29.9654 35.9363 28.837C35.9318 28.8404 35.9396 28.8437 35.9396 28.8437ZM7.13051 50.2529C8.31797 50.2529 9.50544 50.2529 10.7008 50.2529C10.7008 53.8426 10.7008 57.3526 10.7008 60.8794C9.50993 60.8794 8.34831 60.8794 7.14962 60.8794C7.14962 57.2997 7.14962 53.7662 7.14962 50.2327C5.98462 50.2327 4.82076 50.2327 3.64565 50.2327C3.64565 48.9964 3.64565 47.8669 3.64565 46.7081C4.80728 46.7081 5.93294 46.7081 7.13051 46.7081C7.13051 47.9152 7.13051 49.084 7.13051 50.2529ZM46.6133 78.9606C46.6133 81.3692 46.6133 83.7316 46.6133 86.1502C47.8322 86.1502 48.9635 86.1502 50.1274 86.1502C50.1274 88.5351 50.1274 90.8627 50.1274 93.2038C47.7491 93.2038 45.4056 93.2038 43.0082 93.2038C43.0082 92.0091 43.0082 90.8571 43.0082 89.6411C41.8062 89.6411 40.6569 89.6411 39.4649 89.6411C39.4649 88.588 39.4784 87.5989 39.4515 86.611C39.447 86.4447 39.2762 86.1435 39.174 86.1401C38.0786 86.1053 36.9822 86.1188 35.8284 86.1188C35.8284 87.3258 35.8284 88.4598 35.8284 89.6219C34.6219 89.6219 33.476 89.6219 32.3233 89.6219C32.3233 87.2393 32.3233 84.8937 32.3233 82.4863C33.5108 82.4863 34.6612 82.4863 35.8363 82.4863C35.8363 81.2736 35.8363 80.1228 35.8363 78.9033C35.606 78.9033 35.406 78.9033 35.2049 78.9033C34.3814 78.9044 33.558 78.9191 32.7356 78.8932C32.5907 78.8887 32.3301 78.7111 32.3278 78.6077C32.2975 77.5479 32.3087 76.4858 32.3087 75.3956C34.7072 75.3956 37.0361 75.3956 39.4447 75.3956C39.4447 76.5881 39.4447 77.7513 39.4447 78.9595C41.8601 78.9606 44.1934 78.9606 46.6133 78.9606ZM25.1357 50.2484C25.1357 49.0031 25.1357 47.8388 25.1357 46.616C26.3636 46.616 27.5151 46.616 28.716 46.616C28.716 44.2063 28.716 41.8574 28.716 39.4983C29.9147 39.4983 31.0595 39.4983 32.2076 39.4983C32.2076 44.2827 32.2076 49.0211 32.2076 53.819C28.6127 53.819 25.0694 53.819 21.471 53.819C21.471 55.0126 21.471 56.1455 21.471 57.2975C19.0916 57.2975 16.7695 57.2975 14.4451 57.2975C14.4451 56.1174 14.4451 54.9856 14.4451 53.7932C15.6124 53.7932 16.7448 53.7932 17.9469 53.7932C17.9469 52.5861 17.9469 51.4375 17.9469 50.2473C20.351 50.2484 22.6832 50.2484 25.1357 50.2484ZM28.6351 100.414C25.0435 100.414 21.5171 100.414 17.9188 100.414C17.9188 99.2133 17.9188 98.0467 17.9188 96.8329C16.7133 96.8329 15.5798 96.8329 14.4159 96.8329C14.4159 95.6359 14.4159 94.4896 14.4159 93.269C15.6225 93.269 16.7875 93.269 18.0098 93.269C18.0098 92.0653 18.0098 90.9347 18.0098 89.8029C20.3914 89.8029 22.7135 89.8029 25.1042 89.8029C25.1042 90.9819 25.1042 92.1125 25.1042 93.3061C26.3209 93.3061 27.469 93.3061 28.6351 93.3061C28.6351 95.7022 28.6351 98.0321 28.6351 100.414ZM28.5801 86.0008C25.0222 86.0008 21.5362 86.0008 18.0266 86.0008C18.0266 82.4548 18.0266 78.9483 18.0266 75.4271C21.5677 75.4271 25.0682 75.4271 28.5801 75.4271C28.5801 78.9696 28.5801 82.4638 28.5801 86.0008ZM10.8052 82.5032C10.8052 81.2759 10.8052 80.1306 10.8052 78.9775C11.9916 78.9775 13.1071 78.9775 14.2485 78.9775C14.2485 81.3366 14.2485 83.6642 14.2485 86.0176C11.8983 86.0176 9.58969 86.0176 7.24398 86.0176C7.24398 84.8375 7.24398 83.6923 7.24398 82.5032C8.42133 82.5032 9.55711 82.5032 10.8052 82.5032ZM32.3155 93.3567C33.5018 93.3567 34.6488 93.3567 35.8464 93.3567C35.8464 94.5503 35.8464 95.7034 35.8464 96.9318C37.0417 96.9318 38.1887 96.9318 39.3537 96.9318C39.3537 98.1209 39.3537 99.2335 39.3537 100.38C36.9957 100.38 34.6713 100.38 32.3155 100.38C32.3155 98.0377 32.3155 95.7259 32.3155 93.3567ZM35.9093 93.224C35.9093 92.0383 35.9093 90.9099 35.9093 89.7658C37.0878 89.7658 38.2303 89.7658 39.3852 89.7658C39.3852 90.9425 39.3852 92.072 39.3852 93.224C38.218 93.224 37.0855 93.224 35.9093 93.224ZM7.16422 75.4046C8.3573 75.4046 9.50543 75.4046 10.6895 75.4046C10.6895 76.5566 10.6895 77.685 10.6895 78.8348C9.50319 78.8348 8.34269 78.8348 7.16422 78.8348C7.16422 77.6839 7.16422 76.5836 7.16422 75.4046ZM10.7884 75.2776C10.7884 74.0908 10.7884 72.9781 10.7884 71.8306C11.9511 71.8306 13.079 71.8306 14.2283 71.8306C14.2283 72.9961 14.2283 74.1256 14.2283 75.2776C13.0689 75.2776 11.9534 75.2776 10.7884 75.2776ZM28.7407 60.9007C28.7407 59.7262 28.7407 58.6012 28.7407 57.4852C29.9293 57.4852 31.0741 57.4852 32.2234 57.4852C32.2234 58.6495 32.2234 59.7622 32.2234 60.9007C31.0539 60.9007 29.9192 60.9007 28.7407 60.9007ZM28.743 93.2173C28.743 92.0462 28.743 90.9043 28.743 89.7535C29.9181 89.7535 31.0482 89.7535 32.193 89.7535C32.193 90.9291 32.193 92.0709 32.193 93.2173C31.0179 93.2173 29.8877 93.2173 28.743 93.2173ZM46.6762 78.8752C46.6762 77.6906 46.6762 76.5634 46.6762 75.4102C47.8491 75.4102 48.9882 75.4102 50.1251 75.4102C50.1251 76.5903 50.1251 77.721 50.1251 78.8752C48.9736 78.8752 47.8592 78.8752 46.6762 78.8752Z" fill="black"/>
<path d="M78.8134 43.0033C78.837 43.8394 78.8628 44.6767 78.8819 45.5129C78.8898 45.8636 78.883 46.2154 78.883 46.6256C80.0851 46.6256 81.2332 46.6256 82.4162 46.6256C82.4162 47.836 82.4162 48.9846 82.4162 50.1715C80.0593 50.1715 77.7315 50.1715 75.3442 50.1715C75.3442 49.0161 75.3442 47.8641 75.3442 46.6694C72.9401 46.6694 70.5944 46.6694 68.2094 46.6694C68.2094 49.0195 68.2094 51.3662 68.2094 53.7556C69.362 53.7556 70.5079 53.7556 71.7145 53.7556C71.7145 52.5755 71.7145 51.4246 71.7145 50.24C72.9233 50.24 74.0725 50.24 75.2768 50.24C75.2768 51.41 75.2768 52.5609 75.2768 53.7691C77.6776 53.7691 80.0244 53.7691 82.4196 53.7691C82.4196 54.9705 82.4196 56.1169 82.4196 57.333C78.8819 57.333 75.3409 57.333 71.7223 57.333C71.7223 58.4985 71.7111 59.5954 71.7414 60.6912C71.7437 60.7878 72.0144 60.9542 72.1649 60.9587C73.0244 60.9845 73.886 60.9946 74.7455 60.962C75.1813 60.9452 75.2881 61.1081 75.2791 61.5116C75.2566 62.5018 75.2723 63.4919 75.2723 64.5551C76.4744 64.5551 77.6405 64.5551 78.81 64.5551C78.81 65.8319 78.81 67.0356 78.8111 68.237C80.0154 68.2359 81.2175 68.2359 82.4331 68.2359C82.4331 69.3812 82.4331 70.5073 82.4331 71.6391C81.2546 71.6391 80.1109 71.6391 78.9089 71.6391C78.9089 71.0648 78.9201 70.5275 78.9055 69.9914C78.8898 69.4036 78.8505 68.817 78.8224 68.2292C77.6697 68.2292 76.516 68.2292 75.3162 68.2292C75.3162 69.3845 75.3162 70.5197 75.3162 71.6953C74.1197 71.6953 72.9704 71.6953 71.7527 71.6953C71.7527 70.5534 71.7527 69.4048 71.7527 68.2179C70.5371 68.2179 69.3901 68.2179 68.2082 68.2179C68.2082 69.3879 68.2082 70.5399 68.2082 71.7481C69.3451 71.7481 70.4787 71.7481 71.692 71.7481C71.692 75.3412 71.692 78.8815 71.692 82.4532C72.9244 82.4532 74.0759 82.4532 75.2937 82.4532C75.2937 80.1167 75.2937 77.7902 75.2937 75.3963C81.3153 75.3963 87.2705 75.3963 93.2955 75.3963C93.2955 74.1622 93.2955 72.9934 93.2955 71.8009C94.4975 71.8009 95.6299 71.8009 96.8241 71.8009C96.8241 72.9585 96.8241 74.0903 96.8241 75.3041C97.979 75.3041 99.0744 75.3109 100.169 75.2906C100.253 75.2895 100.402 75.0984 100.405 74.9928C100.422 73.9318 100.416 72.8698 100.416 71.7346C99.2069 71.7346 98.0577 71.7346 96.8893 71.7346C96.8893 69.2946 96.8893 66.9299 96.8893 64.5023C97.9139 64.5023 98.9002 64.5068 99.8866 64.4989C100.084 64.4978 100.282 64.4484 100.48 64.4214L100.47 64.4326C100.47 62.1197 100.47 59.8078 100.47 57.4128C101.631 57.4128 102.793 57.4128 103.986 57.4128C103.986 56.1832 103.986 55.0335 103.986 53.8242C102.799 53.8242 101.613 53.8242 100.428 53.8242C100.428 54.9784 100.428 56.1326 100.428 57.3566C97.9891 57.3566 95.6243 57.3566 93.2022 57.3566C93.2022 58.5783 93.2022 59.7314 93.2022 60.8912C92.0103 60.8912 90.879 60.8912 89.6904 60.8912C89.6904 60.6518 89.6904 60.4495 89.6904 60.2472C89.6904 58.2827 89.678 56.317 89.6983 54.3524C89.7028 53.8961 89.5792 53.7331 89.1028 53.7511C88.1378 53.7871 87.1705 53.7623 86.1943 53.7623C86.1943 52.5407 86.1943 51.3954 86.1943 50.1883C87.3896 50.1883 88.5378 50.1883 89.7499 50.1883C89.7499 48.9779 89.7499 47.8293 89.7499 46.6795C90.9475 46.6795 92.0788 46.6795 93.2955 46.6795C93.2955 47.881 93.2955 49.0453 93.2955 50.267C94.5155 50.267 95.649 50.267 96.8522 50.267C96.8522 51.473 96.8522 52.6216 96.8522 53.8455C98.0992 53.8455 99.2732 53.8455 100.448 53.8455C100.448 52.6733 100.448 51.5011 100.448 50.2681C101.63 50.2681 102.778 50.2681 103.973 50.2681C103.973 49.0453 103.973 47.881 103.973 46.6436C102.821 46.6436 101.659 46.6436 100.406 46.6436C100.406 45.4017 100.406 44.2317 100.407 43.0617C98.061 43.0606 95.7142 43.0606 93.3764 43.0606C93.3764 41.8108 93.3764 40.6476 93.3764 39.5046C95.7513 39.5046 98.0734 39.5046 100.39 39.5046C100.39 40.7307 100.39 41.9063 100.39 43.0808C101.581 43.0808 102.77 43.0808 103.99 43.0808C103.99 41.8288 103.99 40.6768 103.99 39.4596C102.836 39.4596 101.687 39.4596 100.456 39.4596C100.456 38.2346 100.456 37.0713 100.456 35.8429C99.4451 35.8429 98.5149 35.8125 97.587 35.8541C97.0398 35.8789 96.8421 35.7507 96.8545 35.1517C96.8972 33.2253 96.8702 31.2967 96.8691 29.3704C96.8691 29.1692 96.8691 28.968 96.8691 28.7005C96.5826 28.7005 96.3624 28.7005 96.1434 28.7005C94.1976 28.7005 92.2529 28.7207 90.3072 28.6882C89.7702 28.6792 89.6567 28.8646 89.6601 29.3602C89.6803 32.4667 89.6713 35.5732 89.6724 38.6796C89.6724 38.901 89.6724 39.1236 89.6724 39.3899C87.2762 39.3899 84.9304 39.3899 82.5151 39.3899C82.5151 38.2334 82.5151 37.0814 82.5151 35.8643C81.3175 35.8643 80.1862 35.8643 79.0077 35.8643C79.0077 34.6516 79.0077 33.5074 79.0077 32.297C80.1469 32.297 81.2782 32.297 82.4398 32.297C82.4398 31.0798 82.4398 29.9267 82.4398 28.7028C80.1154 28.7028 77.7899 28.7028 75.4015 28.7028C75.3869 28.4398 75.3656 28.2431 75.3656 28.0464C75.3633 26.0436 75.3532 24.042 75.3712 22.0392C75.3746 21.6244 75.2577 21.4817 74.8331 21.493C73.8254 21.521 72.8165 21.5019 71.7369 21.5019C71.7369 22.6888 71.7369 23.8374 71.7369 25.0242C70.5349 25.0242 69.4036 25.0242 68.2094 25.0242C68.2094 23.8745 68.2094 22.7259 68.2094 21.5053C66.986 21.5053 65.821 21.5053 64.6009 21.5053C64.6009 20.2836 64.6009 19.1339 64.6009 17.9381C60.9824 17.9381 57.4211 17.9381 53.7801 17.9381C53.7801 19.0901 53.7801 20.2567 53.7801 21.4727C52.5679 21.4727 51.4355 21.4727 50.2604 21.4727C50.2604 22.6888 50.2604 23.852 50.2604 25.0917C51.2591 25.0917 52.2275 25.1186 53.1925 25.0804C53.67 25.0613 53.7969 25.2119 53.779 25.6772C53.743 26.6438 53.7677 27.6126 53.7677 28.6162C51.3726 28.6162 49.0437 28.6162 46.6396 28.6162C46.6396 26.2583 46.6396 23.9138 46.6396 21.5357C45.4151 21.5357 44.2658 21.5357 43.0514 21.5357C43.0514 22.6809 43.0514 23.8127 43.0514 24.9872C41.8403 24.9872 40.6922 24.9872 39.4845 24.9872C39.4845 22.6405 39.4845 20.3117 39.4845 17.9246C38.2768 17.9246 37.1264 17.9246 35.9008 17.9246C35.9008 15.5048 35.9008 13.1424 35.9008 10.7271C34.674 10.7271 33.5214 10.7271 32.326 10.7271C32.326 8.3467 32.326 6.02023 32.326 3.65105C33.4517 3.65105 34.5807 3.65105 35.7929 3.65105C35.7929 4.79069 35.7929 5.93706 35.7929 7.1284C38.2251 7.1284 40.5765 7.1284 42.9795 7.1284C42.9795 8.31748 42.9795 9.46161 42.9795 10.6754C41.819 10.6754 40.6708 10.6754 39.489 10.6754C39.489 11.9117 39.489 13.0794 39.489 14.2764C43.057 14.2764 46.6025 14.2764 50.2402 14.2764C50.2402 11.8769 50.2402 9.49083 50.2402 7.10367L50.2469 7.11041C47.8742 7.11041 45.5016 7.11041 43.0592 7.11041C43.0592 4.73224 43.0592 2.38666 43.0592 0.0107422C38.2465 0.0107422 33.5045 0.0107422 28.7266 0.0107422C28.7266 3.57125 28.7266 7.1003 28.7266 10.6968C29.8702 10.6968 31.0172 10.6968 32.2126 10.6968C32.2126 13.1087 32.2126 15.4531 32.2126 17.8706C31.0509 17.8706 29.9028 17.8706 28.7221 17.8706C28.7221 20.2915 28.7221 22.6382 28.7221 25.0254C29.8904 25.0254 31.0408 25.0254 32.2564 25.0254C32.2564 23.8992 32.2564 22.7697 32.2564 21.5941C33.4674 21.5941 34.6156 21.5941 35.8345 21.5941C35.8446 21.7863 35.8626 21.9818 35.8626 22.1774C35.8648 24.1802 35.8615 26.1819 35.8671 28.1846C35.8682 28.4049 35.9131 28.6252 35.9378 28.8466C35.939 28.8477 35.9311 28.8433 35.9322 28.8444C36.3468 28.7871 36.7613 28.6803 37.1759 28.6792C40.1114 28.6713 43.0469 28.6994 45.9813 28.6769C46.516 28.6724 46.6396 28.8365 46.6329 29.34C46.607 31.2664 46.6216 33.1939 46.6216 35.1213C46.6216 35.3248 46.6216 35.5282 46.6216 35.8182C47.7585 35.8182 48.8539 35.8294 49.9481 35.7979C50.0391 35.7957 50.1919 35.5125 50.1964 35.3574C50.2188 34.3683 50.2076 33.3782 50.2076 32.3397C51.3804 32.3397 52.5095 32.3397 53.7149 32.3397C53.7149 33.4658 53.7149 34.6111 53.7149 35.8238C54.9069 35.8238 56.0224 35.835 57.138 35.8036C57.2279 35.8013 57.3818 35.5136 57.3852 35.3562C57.4065 34.2526 57.3964 33.1489 57.3964 32.0452C57.3964 30.0054 57.3964 27.9666 57.3964 25.9267C57.3964 25.6705 57.3964 25.4131 57.3964 25.0894C58.3974 25.0894 59.3276 25.0883 60.2578 25.0894C60.9756 25.0906 60.9768 25.0917 60.9768 24.3499C60.9779 23.4171 60.9768 22.4831 60.9768 21.5121C62.1642 21.5121 63.3135 21.5121 64.5425 21.5121C64.5425 22.6933 64.5425 23.8599 64.5425 25.0759C65.7749 25.0759 66.9287 25.0759 68.1217 25.0759C68.1217 27.4912 68.1217 29.8548 68.1217 32.2577C66.9455 32.2577 65.812 32.2577 64.6077 32.2577C64.6077 31.1012 64.6077 29.9346 64.6077 28.7275C63.3887 28.7275 62.2406 28.7275 61.043 28.7275C61.043 31.0922 61.043 33.4524 61.043 35.8598C63.3843 35.8598 65.7142 35.8598 68.133 35.8598C68.133 36.7544 68.1285 37.6063 68.1341 38.4582C68.142 39.572 68.0094 39.4158 69.0755 39.4248C69.9316 39.4326 70.7876 39.4259 71.7201 39.4259C71.7201 38.2177 71.7201 37.0679 71.7201 35.898C72.93 35.898 74.0613 35.898 75.2566 35.898C75.2566 38.2716 75.2566 40.6183 75.2566 43.0179C76.4879 43.0179 77.6585 43.0179 78.8291 43.019C78.8707 41.8411 78.91 40.6622 78.9493 39.4855C80.1435 39.4855 81.2759 39.4855 82.4252 39.4855C82.4252 40.6813 82.4252 41.8456 82.4252 43.0066C81.1962 43.0033 80.0053 43.0033 78.8134 43.0033ZM93.2011 64.608C93.2011 67.0345 93.2011 69.3924 93.2011 71.7492C92.017 71.7492 90.8868 71.7492 89.7275 71.7492C89.7275 69.3553 89.7275 66.9929 89.7275 64.608C90.9014 64.608 92.0339 64.608 93.2011 64.608ZM82.5387 64.6406C83.7452 64.6406 84.8743 64.6406 86.01 64.6406C86.01 65.8229 86.01 66.967 86.01 68.11C84.8349 68.11 83.7025 68.11 82.5387 68.11C82.5387 66.9434 82.5387 65.8105 82.5387 64.6406ZM57.3559 25.031C56.1258 25.031 54.9956 25.031 53.843 25.031C53.843 23.8509 53.843 22.7045 53.843 21.4986C54.9428 21.4986 56.0022 21.4907 57.0616 21.5121C57.1616 21.5143 57.3413 21.7042 57.3436 21.8099C57.3638 22.872 57.3559 23.9329 57.3559 25.031ZM71.6583 32.2891C71.6583 33.5142 71.6583 34.6785 71.6583 35.8362C70.4787 35.8362 69.3485 35.8362 68.2217 35.8362C68.2217 34.6325 68.2217 33.4703 68.2217 32.2891C69.389 32.2891 70.5034 32.2891 71.6583 32.2891ZM86.1797 46.6031C86.1797 45.4309 86.1797 44.2879 86.1797 43.1179C87.3379 43.1179 88.4625 43.1179 89.5915 43.1179C89.5915 44.307 89.5915 45.4522 89.5915 46.6031C88.4355 46.6031 87.3245 46.6031 86.1797 46.6031ZM78.9572 64.4956C78.9572 63.3267 78.9572 62.1837 78.9572 61.0328C80.1424 61.0328 81.2737 61.0328 82.4353 61.0328C82.4353 62.1927 82.4353 63.3211 82.4353 64.4956C81.2658 64.4956 80.1188 64.4956 78.9572 64.4956ZM82.5027 60.8946C82.5027 59.8123 82.4937 58.7693 82.5151 57.7286C82.5173 57.6162 82.6858 57.4116 82.7813 57.4094C83.8553 57.3869 84.9304 57.3948 86.0247 57.3948C86.0247 58.603 86.0247 59.7325 86.0247 60.8946C84.8664 60.8946 83.7362 60.8946 82.5027 60.8946ZM86.1628 64.5023C86.1628 63.2986 86.1628 62.1725 86.1628 61.0463C87.3492 61.0463 88.4895 61.0463 89.6207 61.0463C89.6207 62.2298 89.6207 63.3593 89.6207 64.5023C88.4535 64.5023 87.3256 64.5023 86.1628 64.5023Z" fill="black"/>
<path d="M104 104C104 95.6426 104 87.3382 104 78.991C95.635 78.991 87.2879 78.991 78.9128 78.991C78.9128 87.3325 78.9128 95.6505 78.9128 104C87.2778 104 95.6114 104 104 104ZM82.8043 100.175C82.8043 94.3636 82.8043 88.5958 82.8043 82.8336C88.6158 82.8336 94.3824 82.8336 100.15 82.8336C100.15 88.634 100.15 94.3884 100.15 100.175C94.3644 100.175 88.6113 100.175 82.8043 100.175Z" fill="black"/>
<path d="M25.0447 0.0045166C16.6988 0.0045166 8.37079 0.0045166 0.0102615 0.0045166C0.0102615 8.35059 0.0102615 16.6674 0.0102615 25.0248C8.35619 25.0248 16.6819 25.0248 25.0447 25.0248C25.0447 16.6809 25.0447 8.36633 25.0447 0.0045166ZM21.2408 3.77745C21.2408 9.63296 21.2408 15.4042 21.2408 21.1945C15.4248 21.1945 9.64364 21.1945 3.84115 21.1945C3.82767 21.0046 3.80856 20.8585 3.80856 20.7112C3.80632 15.2311 3.81082 9.74984 3.79396 4.26971C3.79284 3.79992 4.00067 3.76958 4.37028 3.7707C9.75485 3.77857 15.1394 3.77745 20.524 3.77745C20.7611 3.77745 20.9981 3.77745 21.2408 3.77745Z" fill="black"/>
<path d="M103.972 0C95.619 0 87.3068 0 78.9575 0C78.9575 8.35507 78.9575 16.6719 78.9575 25.027C87.2967 25.027 95.61 25.027 103.972 25.027C103.972 16.7023 103.972 8.3708 103.972 0ZM100.15 21.2035C94.3248 21.2035 88.5718 21.2035 82.7929 21.2035C82.7929 15.3929 82.7929 9.61945 82.7929 3.81676C88.592 3.81676 94.3597 3.81676 100.15 3.81676C100.15 9.62844 100.15 15.3997 100.15 21.2035Z" fill="black"/>
<path d="M50.2406 7.10086C51.3933 7.10086 52.5459 7.10086 53.7693 7.10086C53.7693 8.12698 53.803 9.05869 53.757 9.98703C53.7278 10.5636 53.9131 10.7412 54.4827 10.7075C55.2657 10.6603 56.0533 10.6782 56.8385 10.703C57.2194 10.7153 57.3722 10.6142 57.362 10.2062C57.3373 9.20031 57.3542 8.19442 57.3542 7.12896C56.1611 7.12896 55.0287 7.12896 53.8435 7.12896C53.8435 5.92077 53.8435 4.77327 53.8435 3.58081C56.169 3.58081 58.4967 3.58081 60.8941 3.58081C60.8941 4.77102 60.8941 5.91964 60.8941 7.13458C61.1615 7.13458 61.3603 7.13458 61.5603 7.13458C63.524 7.1357 65.4889 7.1638 67.4515 7.12334C68.0481 7.11098 68.157 7.30654 68.1525 7.8505C68.129 10.957 68.1413 14.0634 68.1424 17.1687C68.1424 17.3902 68.1424 17.6104 68.1424 17.8588C70.5331 17.8588 72.8653 17.8588 75.2458 17.8588C75.2458 16.7023 75.2458 15.5391 75.2458 14.3163C74.1191 14.3163 72.9866 14.3163 71.7688 14.3163C71.7688 14.0443 71.7688 13.8285 71.7688 13.6116C71.7688 11.6841 71.7688 9.75664 71.7677 7.82915C71.7677 7.11884 71.7655 7.1166 71.0296 7.11547C70.114 7.11435 69.1985 7.11547 68.2267 7.11547C68.2267 5.94887 68.2267 4.80586 68.2267 3.59992C69.3636 3.59992 70.4949 3.59992 71.6711 3.59992C71.6711 2.37374 71.6711 1.20826 71.6711 0.00793457C70.5241 0.00793457 69.3748 0.00793457 68.1357 0.00793457C68.1357 0.94639 68.1357 1.87361 68.1357 2.80195C68.1357 3.53023 68.1346 3.53136 67.4156 3.53248C65.4889 3.5381 63.5622 3.5426 61.6356 3.54709C61.4345 3.54709 61.2322 3.54709 60.9705 3.54709C60.9705 2.34902 60.9705 1.21388 60.9705 0.0326604C58.5473 0.0326604 56.1847 0.0326604 53.7536 0.0326604C53.7536 1.17117 53.7536 2.30294 53.7536 3.48078C52.556 3.48078 51.427 3.48078 50.2283 3.48078C50.2283 2.3389 50.2283 1.20826 50.2283 0.0281648C49.015 0.0281648 47.868 0.0281648 46.6805 0.0281648C46.6805 1.19365 46.6805 2.35913 46.6805 3.5898C47.8343 3.5898 48.9656 3.5898 50.2485 3.5898C50.2485 4.80474 50.2485 5.95561 50.2485 7.10761C50.2474 7.10761 50.2406 7.10086 50.2406 7.10086Z" fill="black"/>
<path d="M61.0066 68.2106C59.773 68.2106 58.6215 68.2106 57.4363 68.2106C57.4363 69.3907 57.4363 70.5415 57.4363 71.7565C58.5912 71.7565 59.7405 71.7565 60.9459 71.7565C60.9459 76.542 60.9459 81.2635 60.9459 86.03C62.1693 86.03 63.3354 86.03 64.5678 86.03C64.5678 83.708 64.5678 81.3804 64.5678 78.9685C65.5767 78.9685 66.5237 78.9348 67.4674 78.9809C68.0212 79.0079 68.165 78.8191 68.1426 78.2886C68.1021 77.3389 68.1313 76.3869 68.1313 75.3507C66.945 75.3507 65.7991 75.3507 64.6038 75.3507C64.6038 74.1144 64.6038 72.9635 64.6038 71.7407C63.386 71.7407 62.2176 71.7407 61.0066 71.7407C61.0066 70.537 61.0066 69.4008 61.0066 68.2106Z" fill="black"/>
<path d="M75.2605 89.6591C74.0865 89.6591 72.9373 89.6591 71.7363 89.6591C71.7363 88.4644 71.7363 87.3293 71.7363 86.1548C70.5376 86.1548 69.3929 86.1548 68.211 86.1548C68.211 87.3304 68.211 88.479 68.211 89.6906C69.3693 89.6906 70.5017 89.6906 71.6734 89.6906C71.6734 90.8864 71.6734 92.0204 71.6734 93.2264C70.5387 93.2264 69.3906 93.2264 68.2054 93.2264C68.2054 95.645 68.2054 97.9951 68.2054 100.392C69.349 100.392 70.4949 100.392 71.7105 100.392C71.7105 99.2572 71.7105 98.1265 71.7105 96.9341C72.9271 96.9341 74.0764 96.9341 75.2605 96.9341C75.2605 94.4862 75.2605 92.1036 75.2605 89.6591Z" fill="black"/>
<path d="M3.54884 93.2454C2.37711 93.2454 1.20538 93.2454 0.00331116 93.2454C0.00331116 94.4783 0.00331116 95.6472 0.00331116 96.8812C1.18066 96.8812 2.33105 96.8812 3.53536 96.8812C3.53536 99.2751 3.53536 101.605 3.53536 103.98C4.75316 103.98 5.91591 103.98 7.11011 103.98C7.11011 101.618 7.11011 99.2718 7.11011 96.8644C5.93613 96.8644 4.78574 96.8644 3.53649 96.8644C3.53649 95.6146 3.53649 94.4244 3.53649 93.2353C3.53761 93.2342 3.54884 93.2454 3.54884 93.2454Z" fill="black"/>
<path d="M3.54996 35.8479C3.55108 37.0505 3.55221 38.253 3.55221 39.4556L3.53761 39.441C4.72731 39.441 5.91702 39.441 7.13818 39.441C7.13818 38.2058 7.13818 37.0302 7.13818 35.8558L7.13369 35.8513C5.935 35.8546 4.7363 35.8569 3.53761 35.8603L3.54996 35.8479Z" fill="black"/>
<path d="M3.53769 35.8591C3.53769 34.6869 3.53769 33.5158 3.53769 32.3087C2.35697 32.3087 1.20995 32.3087 0.0179977 32.3087C0.0179977 33.4843 0.0179977 34.6464 0.0179977 35.8479C1.20771 35.8479 2.37944 35.8479 3.55005 35.8479L3.53769 35.8591Z" fill="black"/>
<path d="M10.7232 35.858C10.7232 34.688 10.7232 33.518 10.7232 32.3087C9.52117 32.3087 8.35842 32.3087 7.13389 32.3087C7.13389 33.5102 7.13389 34.6801 7.13389 35.8501L7.13838 35.8546C8.33708 35.8524 9.53578 35.8501 10.7356 35.8479L10.7232 35.858Z" fill="black"/>
<path d="M100.478 64.422C100.478 65.6279 100.478 66.8339 100.478 68.0859C101.633 68.0859 102.795 68.0859 103.988 68.0859C103.988 66.926 103.988 65.7763 103.988 64.5389C103.025 64.5389 102.062 64.5445 101.099 64.5344C100.887 64.5321 100.676 64.4726 100.467 64.4355C100.468 64.4321 100.478 64.422 100.478 64.422Z" fill="black"/>
<path d="M64.5239 14.2656C64.5239 13.0743 64.5239 11.9402 64.5239 10.7646C63.3522 10.7646 62.2085 10.7646 61.0289 10.7646C61.0289 11.9324 61.0289 13.0799 61.0289 14.2656C62.1827 14.2656 63.3275 14.2656 64.5239 14.2656Z" fill="black"/>
<path d="M7.18433 17.8655C7.18433 14.2735 7.18433 10.731 7.18433 7.17273C10.7636 7.17273 14.3046 7.17273 17.8591 7.17273C17.8591 10.7568 17.8591 14.3005 17.8591 17.8655C14.29 17.8655 10.7602 17.8655 7.18433 17.8655Z" fill="white"/>
<path d="M21.5404 78.9855C21.5404 80.1431 21.5404 81.2749 21.5404 82.4471C22.702 82.4471 23.8479 82.4471 25.0298 82.4471C25.0298 81.2917 25.0298 80.1599 25.0298 78.9855C23.8637 78.9855 22.7189 78.9855 21.5404 78.9855Z" fill="black"/>
<path d="M96.7842 86.1064C93.2353 86.1064 89.71 86.1064 86.1352 86.1064C86.1352 89.6726 86.1352 93.2286 86.1352 96.8138C89.6864 96.8138 93.2117 96.8138 96.7842 96.8138C96.7842 93.2612 96.7842 89.7187 96.7842 86.1064Z" fill="black"/>
<path d="M7.18433 17.8655C10.7613 17.8655 14.29 17.8655 17.8591 17.8655C17.8591 14.3005 17.8591 10.7568 17.8591 7.17273C14.3046 7.17273 10.7636 7.17273 7.18433 7.17273C7.18433 10.731 7.18433 14.2735 7.18433 17.8655Z" fill="black"/>
<path d="M86.1385 7.17041C86.1385 10.7197 86.1385 14.2645 86.1385 17.8497C89.6762 17.8497 93.215 17.8497 96.7942 17.8497C96.7942 14.3016 96.7942 10.759 96.7942 7.17041C93.261 7.17041 89.7211 7.17041 86.1385 7.17041Z" fill="black"/>
<path d="M55.5288 45.011L61.738 55.3587C63.3422 58.0336 61.4167 61.4368 58.2992 61.4368H45.8819C42.7633 61.4368 40.8377 58.0336 42.4431 55.3587L48.6523 45.011C50.2083 42.4137 53.9706 42.4137 55.5288 45.011ZM49.3994 45.4774L43.17 55.8532C42.287 57.3244 43.3464 59.198 45.0618 59.198H57.5206C59.2361 59.198 60.2955 57.3255 59.4125 55.8532L53.1831 45.4774C52.3259 44.0489 50.2566 44.0489 49.3994 45.4774Z" fill="black"/>
<path d="M51.8664 47.641L56.0085 54.5417C56.6466 55.6049 55.8816 56.957 54.6424 56.957H46.3572C45.118 56.957 44.353 55.6038 44.9911 54.5417L49.1331 47.641C49.7533 46.6093 51.2474 46.6093 51.8664 47.641ZM49.168 49.2763L46.465 53.7786C46.2179 54.1911 46.5144 54.7159 46.9953 54.7159H52.4012C52.882 54.7159 53.1786 54.1911 52.9314 53.7786L50.2285 49.2763C49.9881 48.8762 49.4084 48.8762 49.168 49.2763Z" fill="black"/>
</svg>
