<svg width="59" height="59" viewBox="0 0 59 59" fill="none" xmlns="http://www.w3.org/2000/svg">
<path d="M29.5 0.921875C13.7359 0.921875 0.921875 13.7359 0.921875 29.5C0.921875 34.3398 2.11995 39.0877 4.47073 43.2822L2.02831 52.2246C1.61346 53.6535 2.02776 55.1283 3.08792 56.1885C4.14808 57.2486 5.6238 57.6636 7.0527 57.2949L16.3633 54.8516C20.4195 56.9719 24.9365 58.0781 29.5459 58.0781C45.31 58.0781 58.124 45.2641 58.124 29.5C58.124 21.8484 55.1742 14.7035 49.7812 9.31058C44.3422 3.91761 37.1516 0.921875 29.5 0.921875ZM29.5 3.6875C36.4141 3.6875 42.9131 6.36112 47.7529 11.2471C52.6389 16.133 55.3586 22.632 55.3125 29.5C55.3125 43.743 43.743 55.3125 29.5 55.3125C25.2133 55.3125 20.9262 54.2059 17.1465 52.1778C16.9621 52.0856 16.7324 51.9941 16.5019 51.9941C16.3636 51.9941 16.2711 51.9939 16.1328 52.04L6.31448 54.6211C5.62308 54.8055 5.16286 54.4364 4.97849 54.252C4.79411 54.0676 4.425 53.6074 4.60938 52.916L7.19044 43.42C7.28263 43.0512 7.23708 42.683 7.0527 42.3603C4.8402 38.4885 3.6875 34.0172 3.6875 29.5C3.6875 15.257 15.257 3.6875 29.5 3.6875ZM29.5 7.83594C17.5617 7.83594 7.83594 17.5156 7.83594 29.5C7.83594 33.3258 8.85036 37.0594 10.7402 40.332C11.4777 41.6227 11.6617 43.1434 11.293 44.5723L9.95607 49.4121L15.1191 48.0761C15.58 47.9379 16.041 47.8916 16.5019 47.8916C17.4238 47.8916 18.3453 48.1221 19.1289 48.583C22.3094 50.2424 25.8586 51.1641 29.5 51.1641C41.4383 51.1641 51.1641 41.4383 51.1641 29.5C51.1641 23.6922 48.9051 18.2528 44.8028 14.1504C40.7465 10.0942 35.3078 7.83594 29.5 7.83594ZM19.8662 16.916H21.1572C21.6642 16.916 22.1707 16.9621 22.6778 18.0684C23.277 19.4051 24.6137 22.7701 24.752 23.0928C24.9364 23.4154 25.0293 23.8301 24.7988 24.291C24.5683 24.752 24.4761 25.0285 24.1074 25.4434C23.7847 25.8582 23.3694 26.3199 23.0928 26.6425C22.7701 26.9652 22.4016 27.334 22.8164 28.0254C23.2313 28.7168 24.5676 30.9289 26.5957 32.7266C29.177 35.0312 31.3897 35.7691 32.0811 36.0918C32.7725 36.4144 33.1418 36.3681 33.5566 35.9072C33.9715 35.4463 35.2617 33.9248 35.7227 33.2334C36.1836 32.542 36.6449 32.6806 37.2441 32.9111C37.8894 33.1416 41.208 34.8004 41.8994 35.1231C42.5908 35.4457 43.0512 35.6306 43.1895 35.9072C43.3739 36.276 43.3744 37.6123 42.8213 39.2256C42.2682 40.7928 39.5025 42.36 38.2119 42.4522C36.9674 42.5443 35.8145 43.0056 30.0528 40.7471C23.1387 38.0275 18.7602 30.9287 18.4375 30.4678C18.1148 30.0069 15.6719 26.7808 15.6719 23.416C15.6719 20.0511 17.4231 18.4375 18.0684 17.7461C18.7137 17.0547 19.4053 16.916 19.8662 16.916Z" fill="#00A755"/>
</svg>
