<svg width="32" height="32" viewBox="0 0 32 32" fill="none" xmlns="http://www.w3.org/2000/svg">
<rect width="32" height="32" rx="8" fill="#F52537"/>
<path d="M7.76826 2.75024H9.33276L10.4064 6.77174L11.4004 2.75024H12.9798L11.1711 8.72999V12.811H9.61626V8.72999L7.76826 2.75024ZM14.931 5.32799C13.7156 5.32799 12.9098 6.13212 12.9098 7.32124V10.9595C12.9098 12.2676 13.5931 12.9484 14.931 12.9484C16.0414 12.9484 16.9146 12.2064 16.9146 10.9595V7.32124C16.9146 6.16012 16.0484 5.32799 14.931 5.32799ZM15.5076 10.8974C15.5076 11.3016 15.3011 11.5991 14.9301 11.5991C14.5486 11.5991 14.3281 11.2876 14.3281 10.8974V7.44374C14.3281 7.03774 14.5154 6.73674 14.903 6.73674C15.3265 6.73674 15.5076 7.02899 15.5076 7.44374V10.8974ZM20.6448 5.39012V11.0234C20.4768 11.2342 20.1014 11.5799 19.8336 11.5799C19.5396 11.5799 19.4661 11.3777 19.4661 11.0802V5.39012H18.0863V11.593C18.0863 12.3262 18.3103 12.9186 19.0496 12.9186C19.467 12.9186 20.0471 12.7016 20.6439 11.992V12.811H22.0238V5.39099H20.6448V5.39012ZM23.0379 20.4436C22.5514 20.4436 22.4499 20.7857 22.4499 21.2722V21.988H23.611V21.2714C23.6128 20.7936 23.5113 20.4436 23.0379 20.4436ZM17.9288 20.4874C17.8378 20.5337 17.7476 20.6055 17.6575 20.7026V25.1074C17.7651 25.2229 17.8684 25.3051 17.969 25.3559C18.1834 25.4644 18.4958 25.4722 18.641 25.2832C18.7171 25.1835 18.7548 25.0216 18.7548 24.7959V21.1471C18.7548 20.9082 18.7084 20.728 18.6148 20.6037C18.4555 20.3937 18.1598 20.371 17.9288 20.4874ZM23.1726 14.8436C20.3438 14.6511 11.1519 14.6511 8.32739 14.8436C5.27101 15.0519 4.90964 16.899 4.88689 21.7596C4.90964 26.6124 5.26751 28.4674 8.32739 28.6756C11.1519 28.8681 20.3438 28.8681 23.1726 28.6756C26.229 28.4674 26.5904 26.6194 26.6131 21.7596C26.5904 16.9077 26.2325 15.0527 23.1726 14.8436ZM9.78514 26.4514H8.30464V18.2605H6.77339V16.8701H11.3164V18.2605H9.78514V26.4514ZM15.0491 26.4514H13.7349V25.6717C13.4925 25.9596 13.2405 26.1792 12.9789 26.3289C12.271 26.7349 11.298 26.7252 11.298 25.2911V19.384H12.6114V24.802C12.6114 25.0864 12.6796 25.278 12.9614 25.278C13.2178 25.278 13.5739 24.949 13.734 24.7486V19.384H15.0483V26.4514H15.0491ZM20.1084 24.9875C20.1084 25.8616 19.7811 26.5424 18.907 26.5424C18.4258 26.5424 18.025 26.3665 17.6593 25.9089V26.4522H16.3328V16.871H17.6593V19.9562C17.9559 19.5949 18.3584 19.2956 18.8283 19.2956C19.7908 19.2956 20.1101 20.1094 20.1101 21.0675V24.9875H20.1084ZM24.9646 23.0844H22.4508V24.4187C22.4508 24.949 22.4963 25.4075 23.0239 25.4075C23.5786 25.4075 23.6119 25.0339 23.6119 24.4187V23.9279H24.9646V24.459C24.9646 25.8205 24.3801 26.6456 22.995 26.6456C21.7403 26.6456 21.098 25.7312 21.098 24.459V21.2862C21.098 20.0595 21.9083 19.2072 23.0939 19.2072C24.3548 19.2072 24.9638 20.0087 24.9638 21.2862V23.0852L24.9646 23.0844Z" fill="white"/>
<path opacity="0.07" d="M15.7482 14.6992C18.753 14.6992 21.7577 14.7473 23.1726 14.8436C26.2325 15.0518 26.5904 16.9077 26.6131 21.7596C26.5904 26.6193 26.2299 28.4673 23.1726 28.6756C21.7586 28.7718 18.753 28.82 15.7482 28.82C12.7435 28.82 9.73962 28.7718 8.32737 28.6756C5.2675 28.4673 4.90962 26.6115 4.88687 21.7596C4.90962 16.8981 5.27012 15.0518 8.32737 14.8436C9.73962 14.7473 12.7435 14.6992 15.7482 14.6992ZM15.7482 14.2617C12.4679 14.2617 9.61362 14.3177 8.29762 14.407C4.66025 14.6555 4.47125 17.2297 4.44937 21.7578C4.47037 26.2903 4.66025 28.8646 8.29762 29.1131C9.61362 29.2023 12.4679 29.2583 15.7482 29.2583C19.0286 29.2583 21.8846 29.2023 23.2024 29.1131C26.8397 28.8646 27.0296 26.2903 27.0506 21.7622C27.0296 17.2297 26.8397 14.6555 23.2024 14.407C21.8846 14.3177 19.0286 14.2617 15.7482 14.2617Z" fill="black"/>
<path opacity="0.05" d="M12.9797 2.75L11.1711 8.72975V12.8107H9.61624V8.72975L7.76824 2.75H9.33274L10.4064 6.7715L11.4004 2.75H12.9797ZM14.931 5.32775C16.0484 5.32775 16.9146 6.15987 16.9146 7.321V10.9592C16.9146 12.2061 16.0414 12.9481 14.931 12.9481C13.5931 12.9481 12.9097 12.2674 12.9097 10.9592V7.321C12.9097 6.13187 13.7156 5.32775 14.931 5.32775ZM14.9301 11.5989C15.302 11.5989 15.5076 11.3014 15.5076 10.8971V7.4435C15.5076 7.02875 15.3265 6.7365 14.903 6.7365C14.5154 6.7365 14.3281 7.0375 14.3281 7.4435V10.8971C14.3281 11.2874 14.5486 11.5989 14.9301 11.5989ZM22.0246 5.38987V12.8099H20.6447V11.9909C20.0471 12.7005 19.467 12.9175 19.0505 12.9175C18.3111 12.9175 18.0871 12.3251 18.0871 11.5919V5.389H19.467V11.0791C19.467 11.3766 19.5396 11.5787 19.8345 11.5787C20.1031 11.5787 20.4776 11.2331 20.6456 11.0223V5.389H22.0246V5.38987ZM13.5695 2.3125H12.9797H11.4004H11.0582L10.976 2.645L10.3897 5.0145L9.75536 2.63712L9.66874 2.3125H9.33274H7.76824H7.17499L7.34999 2.8795L9.17961 8.79625V12.8116V13.2491H9.61711H11.172H11.6095V12.8116V8.79537L13.3997 2.87775L13.5695 2.3125ZM14.931 4.89025C13.4829 4.89025 12.4722 5.8895 12.4722 7.321V10.9592C12.4722 12.5237 13.3455 13.3856 14.931 13.3856C16.3564 13.3856 17.3521 12.3881 17.3521 10.9592V7.321C17.3521 5.935 16.3109 4.89025 14.931 4.89025ZM14.9301 11.1614C14.7875 11.1614 14.7656 10.996 14.7656 10.8971V7.4435C14.7656 7.174 14.8584 7.174 14.903 7.174C14.9931 7.174 15.0701 7.174 15.0701 7.4435V10.8971C15.0701 11.0721 15.0229 11.1614 14.9301 11.1614ZM22.4621 4.95237H22.0246H20.6447H20.2072V5.38987V10.8577C20.1049 10.9628 19.9885 11.0564 19.9036 11.1054C19.9036 11.0975 19.9036 11.0887 19.9036 11.0791V5.389V4.9515H19.4661H18.0862H17.6487V5.389V11.5919C17.6487 13.1826 18.6287 13.355 19.0496 13.355C19.3025 13.355 19.7216 13.2929 20.2064 12.9744V13.2474H20.6439H22.0237H22.4612V12.8099V5.38987V4.95237H22.4621Z" fill="#1B1464"/>
<g opacity="0.05">
<path opacity="0.05" d="M23.2321 13.9699C21.9047 13.8797 19.0374 13.8237 15.7482 13.8237C12.4591 13.8237 9.59261 13.8797 8.26786 13.9699C4.04686 14.2577 4.03198 17.5661 4.01186 21.7547C4.03198 25.9504 4.04686 29.2605 8.26786 29.5484C9.59261 29.6385 12.4591 29.6945 15.7482 29.6945C19.0374 29.6945 21.9047 29.6385 23.2321 29.5484C27.4531 29.2605 27.468 25.9521 27.4881 21.7635C27.468 17.5687 27.4522 14.2577 23.2321 13.9699ZM23.2024 29.1126C21.8846 29.2019 19.0286 29.2579 15.7482 29.2579C12.4679 29.2579 9.61361 29.2019 8.29761 29.1126C4.66023 28.865 4.47123 26.2907 4.44936 21.7574C4.47036 17.2292 4.66023 14.655 8.29761 14.4065C9.61361 14.3172 12.4679 14.2612 15.7482 14.2612C19.0286 14.2612 21.8846 14.3172 23.2024 14.4065C26.8397 14.6541 27.0287 17.2284 27.0506 21.7617C27.0287 26.2899 26.8397 28.8641 23.2024 29.1126Z" fill="black"/>
<path opacity="0.05" d="M6.93173 3.00788L8.74123 8.86163V12.8105V13.248V13.6855H9.17873H9.61623H11.1711H11.6086H12.0461V13.248V12.8105V11.1104C12.1082 12.8079 13.1713 13.822 14.931 13.822C15.9915 13.822 16.8603 13.325 17.3521 12.5349C17.6452 13.4396 18.3636 13.7914 19.0496 13.7914C19.236 13.7914 19.4836 13.7651 19.7697 13.6706V13.6838H20.2072H20.6447H22.0246H22.4621H22.8996V13.2463V12.8088V5.38876V4.95126V4.51376H22.4621H22.0246H20.6447H20.3411H19.9036H19.4661H18.0862H17.6487H17.2112V4.95126V5.38876V5.56726C16.6985 4.88476 15.8882 4.45163 14.931 4.45163C14.2756 4.45163 13.6946 4.63976 13.2247 4.96351L13.818 3.00263L13.9886 2.43826L14.1583 1.87476H13.5686H12.9788H11.3995H11.0573H10.7152L10.633 2.20726L10.5507 2.53976L10.3731 3.25813L10.1771 2.52488L10.0905 2.20026L10.0047 1.87476H9.66872H9.33273H7.76823H7.17498H6.58173L6.75673 2.44176L6.93173 3.00788ZM17.6487 5.38963V4.95213H18.0862H19.4661H19.9036V5.38963V11.0798C19.9036 11.0894 19.9036 11.0981 19.9036 11.106C19.9885 11.0561 20.1048 10.9634 20.2072 10.8584V5.38963V4.95213H20.6447H22.0246H22.4621V5.38963V12.8096V13.2471H22.0246H20.6447H20.2072V12.9741C19.7216 13.2926 19.3025 13.3548 19.0496 13.3548C18.6287 13.3548 17.6487 13.1833 17.6487 11.5916V5.38963ZM14.931 4.89001C16.3108 4.89001 17.3521 5.93476 17.3521 7.32076V10.959C17.3521 12.3879 16.3563 13.3854 14.931 13.3854C13.3455 13.3854 12.4722 12.5235 12.4722 10.959V7.32076C12.4722 5.88926 13.4828 4.89001 14.931 4.89001ZM7.76823 2.31226H9.33273H9.66872L9.75535 2.63688L10.3897 5.01426L10.976 2.64476L11.0582 2.31226H11.4003H12.9797H13.5695L13.3988 2.87663L11.6086 8.79426V12.8105V13.248H11.1711H9.61623H9.17873V12.8105V8.79601L7.34998 2.87926L7.17498 2.31226H7.76823Z" fill="black"/>
</g>
<path d="M7.76825 2.75024H9.33275L10.4064 6.77174L11.4004 2.75024H12.9797L11.1711 8.72999V12.811H9.61625V8.72999L7.76825 2.75024ZM14.931 5.32799C13.7156 5.32799 12.9097 6.13212 12.9097 7.32124V10.9595C12.9097 12.2676 13.5931 12.9484 14.931 12.9484C16.0414 12.9484 16.9146 12.2064 16.9146 10.9595V7.32124C16.9146 6.16012 16.0484 5.32799 14.931 5.32799ZM15.5076 10.8974C15.5076 11.3016 15.3011 11.5991 14.9301 11.5991C14.5486 11.5991 14.3281 11.2876 14.3281 10.8974V7.44374C14.3281 7.03774 14.5154 6.73674 14.903 6.73674C15.3265 6.73674 15.5076 7.02899 15.5076 7.44374V10.8974ZM20.6447 5.39012V11.0234C20.4767 11.2342 20.1014 11.5799 19.8336 11.5799C19.5396 11.5799 19.4661 11.3777 19.4661 11.0802V5.39012H18.0862V11.593C18.0862 12.3262 18.3102 12.9186 19.0496 12.9186C19.467 12.9186 20.0471 12.7016 20.6439 11.992V12.811H22.0237V5.39099H20.6447V5.39012ZM23.0379 20.4436C22.5514 20.4436 22.4499 20.7857 22.4499 21.2722V21.988H23.611V21.2714C23.6127 20.7936 23.5112 20.4436 23.0379 20.4436ZM17.9287 20.4874C17.8377 20.5337 17.7476 20.6055 17.6575 20.7026V25.1074C17.7651 25.2229 17.8684 25.3051 17.969 25.3559C18.1834 25.4644 18.4957 25.4722 18.641 25.2832C18.7171 25.1835 18.7547 25.0216 18.7547 24.7959V21.1471C18.7547 20.9082 18.7084 20.728 18.6147 20.6037C18.4555 20.3937 18.1597 20.371 17.9287 20.4874ZM23.1726 14.8436C20.3437 14.6511 11.1519 14.6511 8.32737 14.8436C5.271 15.0519 4.90962 16.899 4.88687 21.7596C4.90962 26.6124 5.2675 28.4674 8.32737 28.6756C11.1519 28.8681 20.3437 28.8681 23.1726 28.6756C26.229 28.4674 26.5904 26.6194 26.6131 21.7596C26.5904 16.9077 26.2325 15.0527 23.1726 14.8436ZM9.78512 26.4514H8.30462V18.2605H6.77337V16.8701H11.3164V18.2605H9.78512V26.4514ZM15.0491 26.4514H13.7349V25.6717C13.4925 25.9596 13.2405 26.1792 12.9789 26.3289C12.271 26.7349 11.298 26.7252 11.298 25.2911V19.384H12.6114V24.802C12.6114 25.0864 12.6796 25.278 12.9614 25.278C13.2177 25.278 13.5739 24.949 13.734 24.7486V19.384H15.0482V26.4514H15.0491ZM20.1084 24.9875C20.1084 25.8616 19.7811 26.5424 18.907 26.5424C18.4257 26.5424 18.025 26.3665 17.6592 25.9089V26.4522H16.3327V16.871H17.6592V19.9562C17.9559 19.5949 18.3584 19.2956 18.8282 19.2956C19.7907 19.2956 20.1101 20.1094 20.1101 21.0675V24.9875H20.1084ZM24.9646 23.0844H22.4507V24.4187C22.4507 24.949 22.4962 25.4075 23.0239 25.4075C23.5786 25.4075 23.6119 25.0339 23.6119 24.4187V23.9279H24.9646V24.459C24.9646 25.8205 24.3801 26.6456 22.995 26.6456C21.7402 26.6456 21.098 25.7312 21.098 24.459V21.2862C21.098 20.0595 21.9082 19.2072 23.0939 19.2072C24.3547 19.2072 24.9637 20.0087 24.9637 21.2862V23.0852L24.9646 23.0844Z" fill="white"/>
<path opacity="0.07" d="M15.7482 14.6992C18.753 14.6992 21.7577 14.7473 23.1726 14.8436C26.2325 15.0518 26.5904 16.9077 26.6131 21.7596C26.5904 26.6193 26.2299 28.4673 23.1726 28.6756C21.7586 28.7718 18.753 28.82 15.7482 28.82C12.7435 28.82 9.73962 28.7718 8.32737 28.6756C5.2675 28.4673 4.90962 26.6115 4.88687 21.7596C4.90962 16.8981 5.27012 15.0518 8.32737 14.8436C9.73962 14.7473 12.7435 14.6992 15.7482 14.6992ZM15.7482 14.2617C12.4679 14.2617 9.61362 14.3177 8.29762 14.407C4.66025 14.6555 4.47125 17.2297 4.44937 21.7578C4.47037 26.2903 4.66025 28.8646 8.29762 29.1131C9.61362 29.2023 12.4679 29.2583 15.7482 29.2583C19.0286 29.2583 21.8846 29.2023 23.2024 29.1131C26.8397 28.8646 27.0296 26.2903 27.0506 21.7622C27.0296 17.2297 26.8397 14.6555 23.2024 14.407C21.8846 14.3177 19.0286 14.2617 15.7482 14.2617Z" fill="black"/>
<path opacity="0.05" d="M12.9798 2.75L11.1711 8.72975V12.8107H9.61625V8.72975L7.76825 2.75H9.33275L10.4064 6.7715L11.4004 2.75H12.9798ZM14.931 5.32775C16.0484 5.32775 16.9146 6.15987 16.9146 7.321V10.9592C16.9146 12.2061 16.0414 12.9481 14.931 12.9481C13.5931 12.9481 12.9098 12.2674 12.9098 10.9592V7.321C12.9098 6.13187 13.7156 5.32775 14.931 5.32775ZM14.9301 11.5989C15.302 11.5989 15.5076 11.3014 15.5076 10.8971V7.4435C15.5076 7.02875 15.3265 6.7365 14.903 6.7365C14.5154 6.7365 14.3281 7.0375 14.3281 7.4435V10.8971C14.3281 11.2874 14.5486 11.5989 14.9301 11.5989ZM22.0246 5.38987V12.8099H20.6448V11.9909C20.0471 12.7005 19.467 12.9175 19.0505 12.9175C18.3111 12.9175 18.0871 12.3251 18.0871 11.5919V5.389H19.467V11.0791C19.467 11.3766 19.5396 11.5787 19.8345 11.5787C20.1031 11.5787 20.4776 11.2331 20.6456 11.0223V5.389H22.0246V5.38987ZM13.5695 2.3125H12.9798H11.4004H11.0583L10.976 2.645L10.3898 5.0145L9.75538 2.63712L9.66875 2.3125H9.33275H7.76825H7.175L7.35 2.8795L9.17963 8.79625V12.8116V13.2491H9.61713H11.172H11.6095V12.8116V8.79537L13.3998 2.87775L13.5695 2.3125ZM14.931 4.89025C13.4829 4.89025 12.4723 5.8895 12.4723 7.321V10.9592C12.4723 12.5237 13.3455 13.3856 14.931 13.3856C16.3564 13.3856 17.3521 12.3881 17.3521 10.9592V7.321C17.3521 5.935 16.3109 4.89025 14.931 4.89025ZM14.9301 11.1614C14.7875 11.1614 14.7656 10.996 14.7656 10.8971V7.4435C14.7656 7.174 14.8584 7.174 14.903 7.174C14.9931 7.174 15.0701 7.174 15.0701 7.4435V10.8971C15.0701 11.0721 15.0229 11.1614 14.9301 11.1614ZM22.4621 4.95237H22.0246H20.6448H20.2073V5.38987V10.8577C20.1049 10.9628 19.9885 11.0564 19.9036 11.1054C19.9036 11.0975 19.9036 11.0887 19.9036 11.0791V5.389V4.9515H19.4661H18.0863H17.6488V5.389V11.5919C17.6488 13.1826 18.6288 13.355 19.0496 13.355C19.3025 13.355 19.7216 13.2929 20.2064 12.9744V13.2474H20.6439H22.0238H22.4613V12.8099V5.38987V4.95237H22.4621Z" fill="#1B1464"/>
<g opacity="0.05">
<path opacity="0.05" d="M23.2321 13.9699C21.9047 13.8797 19.0374 13.8237 15.7482 13.8237C12.4591 13.8237 9.59262 13.8797 8.26787 13.9699C4.04687 14.2577 4.032 17.5661 4.01187 21.7547C4.032 25.9504 4.04687 29.2605 8.26787 29.5484C9.59262 29.6385 12.4591 29.6945 15.7482 29.6945C19.0374 29.6945 21.9047 29.6385 23.2321 29.5484C27.4531 29.2605 27.468 25.9521 27.4881 21.7635C27.468 17.5687 27.4522 14.2577 23.2321 13.9699ZM23.2024 29.1126C21.8846 29.2019 19.0286 29.2579 15.7482 29.2579C12.4679 29.2579 9.61362 29.2019 8.29762 29.1126C4.66025 28.865 4.47125 26.2907 4.44937 21.7574C4.47037 17.2292 4.66025 14.655 8.29762 14.4065C9.61362 14.3172 12.4679 14.2612 15.7482 14.2612C19.0286 14.2612 21.8846 14.3172 23.2024 14.4065C26.8397 14.6541 27.0287 17.2284 27.0506 21.7617C27.0287 26.2899 26.8397 28.8641 23.2024 29.1126Z" fill="black"/>
<path opacity="0.05" d="M6.93174 3.00788L8.74124 8.86163V12.8105V13.248V13.6855H9.17874H9.61624H11.1711H11.6086H12.0461V13.248V12.8105V11.1104C12.1082 12.8079 13.1714 13.822 14.931 13.822C15.9915 13.822 16.8604 13.325 17.3521 12.5349C17.6452 13.4396 18.3636 13.7914 19.0496 13.7914C19.236 13.7914 19.4836 13.7651 19.7697 13.6706V13.6838H20.2072H20.6447H22.0246H22.4621H22.8996V13.2463V12.8088V5.38876V4.95126V4.51376H22.4621H22.0246H20.6447H20.3411H19.9036H19.4661H18.0862H17.6487H17.2112V4.95126V5.38876V5.56726C16.6985 4.88476 15.8882 4.45163 14.931 4.45163C14.2756 4.45163 13.6946 4.63976 13.2247 4.96351L13.818 3.00263L13.9886 2.43826L14.1584 1.87476H13.5686H12.9789H11.3995H11.0574H10.7152L10.633 2.20726L10.5507 2.53976L10.3731 3.25813L10.1771 2.52488L10.0905 2.20026L10.0047 1.87476H9.66874H9.33274H7.76824H7.17499H6.58174L6.75674 2.44176L6.93174 3.00788ZM17.6487 5.38963V4.95213H18.0862H19.4661H19.9036V5.38963V11.0798C19.9036 11.0894 19.9036 11.0981 19.9036 11.106C19.9885 11.0561 20.1049 10.9634 20.2072 10.8584V5.38963V4.95213H20.6447H22.0246H22.4621V5.38963V12.8096V13.2471H22.0246H20.6447H20.2072V12.9741C19.7216 13.2926 19.3025 13.3548 19.0496 13.3548C18.6287 13.3548 17.6487 13.1833 17.6487 11.5916V5.38963ZM14.931 4.89001C16.3109 4.89001 17.3521 5.93476 17.3521 7.32076V10.959C17.3521 12.3879 16.3564 13.3854 14.931 13.3854C13.3455 13.3854 12.4722 12.5235 12.4722 10.959V7.32076C12.4722 5.88926 13.4829 4.89001 14.931 4.89001ZM7.76824 2.31226H9.33274H9.66874L9.75537 2.63688L10.3897 5.01426L10.976 2.64476L11.0582 2.31226H11.4004H12.9797H13.5695L13.3989 2.87663L11.6086 8.79426V12.8105V13.248H11.1711H9.61624H9.17874V12.8105V8.79601L7.34999 2.87926L7.17499 2.31226H7.76824Z" fill="black"/>
</g>
</svg>
